999
FreeCAD v0.19 20940 (Git)
  0
SECTION
  2
HEADER
  9
$ACADVER
  1
AC1014
  9
$ACADMAINTVER
 70
     9
  9
$DWGCODEPAGE
  3
ANSI_1252
  9
$TEXTSTYLE
  7
STANDARD
  9
$DIMSTYLE
  2
STANDARD
  9
$DIMTXSTY
  7
STANDARD
  9
$CMLSTYLE
  2
STANDARD
  9
$PEXTMAX
 10
50
 20
50
 30
50
  9
$PEXTMIN
 10
0
 20
0
 30
0
  9
$HANDSEED
  5
FFFF
  0
ENDSEC
  0
SECTION
  2
CLASSES
  0
CLASS
  1
ACDBDICTIONARYWDFLT
  2
AcDbDictionaryWithDefault
  3
ObjectDBX Classes
 90
        0
280
     0
281
     0
  0
CLASS
  1
XRECORD
  2
AcDbXrecord
  3
ObjectDBX Classes
 90
        0
280
     0
281
     0
  0
CLASS
  1
LWPOLYLINE
  2
AcDbPolyline
  3
ObjectDBX Classes
 90
        0
280
     0
281
     1
  0
ENDSEC
  0
SECTION
  2
TABLES
  0
TABLE
  2
VPORT
  5
20
330
0
100
AcDbSymbolTable
 70
     1
  0
VPORT
  5
21
330
20
100
AcDbSymbolTableRecord
100
AcDbViewportTableRecord
  2
*ACTIVE
 70
     0
  0
ENDTAB
  0
TABLE
  2
LTYPE
  5
22
330
0
100
AcDbSymbolTable
 70
     1
  0
LTYPE
  5
23
330
21
100
AcDbSymbolTableRecord
100
AcDbLinetypeTableRecord
  2
BYBLOCK
 70
     0
  3

 72
    65
 73
     0
 40
0.0
  0
LTYPE
  5
24
330
21
100
AcDbSymbolTableRecord
100
AcDbLinetypeTableRecord
  2
BYLAYER
 70
     0
  3

 72
    65
 73
     0
 40
0.0
  0
LTYPE
  5
25
330
21
100
AcDbSymbolTableRecord
100
AcDbLinetypeTableRecord
  2
CONTINUOUS
 70
     0
  3
Solid line
 72
    65
 73
     0
 40
0.0
  0
ENDTAB
  0
TABLE
  2
LAYER
  5
B60
330
0
100
AcDbSymbolTable
 70
2
  0
LAYER
  5
B61
330
B60
100
AcDbSymbolTableRecord
100
AcDbLayerTableRecord
  2
0
 70
   0
 62
   7
  6
CONTINUOUS
  0
LAYER
  5
B62
330
B60
100
AcDbSymbolTableRecord
100
AcDbLayerTableRecord
  2
ProjItem
 70
    0
 62
    7
  6
CONTINUOUS
  0
ENDTAB
  0
TABLE
  2
STYLE
  5
70
330
0
100
AcDbSymbolTable
 70
     2
  0
STYLE
  5
71
330
70
100
AcDbSymbolTableRecord
100
AcDbTextStyleTableRecord
  2
STANDARD
 70
     0
 40
0.0
 41
1.0
 50
0.0
 71
     0
 42
2.5
  3
arial.ttf
  4

  0
STYLE
  5
72
330
70
100
AcDbSymbolTableRecord
100
AcDbTextStyleTableRecord
  2
ANNOTATIVE
 70
     0
 40
0.0
 41
1.0
 50
0.0
 71
     0
 42
2.5
  3
arial.ttf
  4

  0
ENDTAB
  0
TABLE
  2
VIEW
  5
73
330
0
100
AcDbSymbolTable
 70
     0
  0
ENDTAB
  0
TABLE
  2
UCS
  5
74
330
0
100
AcDbSymbolTable
 70
     0
  0
ENDTAB
  0
TABLE
  2
APPID
  5
75
330
0
100
AcDbSymbolTable
 70
     2
  0
APPID
  5
76
330
75
100
AcDbSymbolTableRecord
100
AcDbRegAppTableRecord
  2
ACAD
 70
     0
  0
APPID
  5
77
330
75
100
AcDbSymbolTableRecord
100
AcDbRegAppTableRecord
  2
ACADANNOTATIVE
 70
     0
  0
ENDTAB
  0
TABLE
  2
DIMSTYLE
  5
78
330
0
100
AcDbSymbolTable
 70
     2
  0
DIMSTYLE
105
79
330
78
100
AcDbSymbolTableRecord
100
AcDbDimStyleTableRecord
  2
STANDARD
 70
     0
  3

  4

  5

  6

  7

 40
0.0
 41
2.5
 42
0.625
 43
3.75
 44
1.25
 45
0.0
 46
0.0
 47
0.0
 48
0.0
140
2.5
141
2.5
142
0.0
143
0.03937007874016
144
1.0
145
0.0
146
1.0
147
0.625
 71
     0
 72
     0
 73
     0
 74
     0
 75
     0
 76
     0
 77
     1
 78
     8
170
     0
171
     3
172
     1
173
     0
174
     0
175
     0
176
     0
177
     0
178
     0
270
     2
271
     2
272
     2
273
     2
274
     3
340
71
275
     0
280
     0
281
     0
282
     0
283
     0
284
     8
285
     0
286
     0
287
     3
288
     0
  0
ENDTAB
  0
TABLE
  2
BLOCK_RECORD
  5
A01
330
0
100
AcDbSymbolTable
  70
5
  0
BLOCK_RECORD
  5
A02
330
A01
100
AcDbSymbolTableRecord
100
AcDbBlockTableRecord
  2
*MODEL_SPACE
  0
BLOCK_RECORD
  5
A03
330
A01
100
AcDbSymbolTableRecord
100
AcDbBlockTableRecord
  2
*PAPER_SPACE
  0
ENDTAB
  0
ENDSEC
  0
SECTION
  2
BLOCKS
  0
BLOCK
  5
A04
330
A02
100
AcDbEntity
  8
0
100
AcDbBlockBegin
  2
*MODEL_SPACE
 70
   0
 10
0
 20
0
 30
0
  3
*MODEL_SPACE
  1
 
  0
ENDBLK
  5
A05
330
A02
100
AcDbEntity
  8
0
100
AcDbBlockEnd
  0
BLOCK
  5
A06
330
A03
100
AcDbEntity
 67
1
  8
0
100
AcDbBlockBegin
  2
*PAPER_SPACE
 70
   0
 10
0
 20
0
 30
0
  3
*PAPER_SPACE
  1
 
  0
ENDBLK
  5
A07
330
A03
100
AcDbEntity
 67
    1
  8
0
100
AcDbBlockEnd
  0
ENDSEC
  0
SECTION
  2
ENTITIES
  0
ELLIPSE
  5
A08
330
A02
100
AcDbEntity
  8
ProjItem
100
AcDbEllipse
 10
88.8298
 20
126.323
 30
0
 11
-3.62564
 21
2.22007e-16
 31
0
 40
1
 41
-3.91803
 42
-3.14159
  0
ELLIPSE
  5
A09
330
A02
100
AcDbEntity
  8
ProjItem
100
AcDbEllipse
 10
98.58
 20
134.036
 30
0
 11
0.32
 21
1.95943e-17
 31
0
 40
1
 41
0
 42
2.35615
  0
ELLIPSE
  5
A0A
330
A02
100
AcDbEntity
  8
ProjItem
100
AcDbEllipse
 10
88.8298
 20
135.823
 30
0
 11
-3.57185
 21
2.18712e-16
 31
0
 40
1
 41
-3.27781
 42
-3.14159
  0
ELLIPSE
  5
A0B
330
A02
100
AcDbEntity
  8
ProjItem
100
AcDbEllipse
 10
97.057
 20
128.843
 30
0
 11
0.5
 21
3.06162e-17
 31
0
 40
1
 41
3.14159
 42
0
  0
ELLIPSE
  5
A0C
330
A02
100
AcDbEntity
  8
ProjItem
100
AcDbEllipse
 10
89.1109
 20
137.739
 30
0
 11
0.2
 21
1.22465e-17
 31
0
 40
1
 41
2.09456
 42
3.14159
  0
ELLIPSE
  5
A0D
330
A02
100
AcDbEntity
  8
ProjItem
100
AcDbEllipse
 10
87.082
 20
134.898
 30
0
 11
0.0866025
 21
5.30288e-18
 31
0
 40
1
 41
0.523599
 42
3.14159
  0
ELLIPSE
  5
A0E
330
A02
100
AcDbEntity
  8
ProjItem
100
AcDbEllipse
 10
89.1093
 20
124.406
 30
0
 11
0.2
 21
1.22465e-17
 31
0
 40
1
 41
2.0944
 42
3.14159
  0
ELLIPSE
  5
A0F
330
A02
100
AcDbEntity
  8
ProjItem
100
AcDbEllipse
 10
105.328
 20
126.298
 30
0
 11
-1.6
 21
9.79717e-17
 31
0
 40
1
 41
-0
 42
-5.23599
  0
ELLIPSE
  5
A10
330
A02
100
AcDbEntity
  8
ProjItem
100
AcDbEllipse
 10
105.328
 20
135.848
 30
0
 11
-1.6
 21
9.79717e-17
 31
0
 40
1
 41
-0
 42
-4.18879
  0
ELLIPSE
  5
A11
330
A02
100
AcDbEntity
  8
ProjItem
100
AcDbEllipse
 10
97.057
 20
140.623
 30
0
 11
-1.6
 21
9.79717e-17
 31
0
 40
1
 41
-0
 42
-3.14159
  0
LINE
  5
A12
330
A02
100
AcDbEntity
  8
ProjItem
100
AcDbLine
 10
95.457
 20
140.623
 30
0
 11
95.457
 21
141.289
 31
0
  0
ELLIPSE
  5
A13
330
A02
100
AcDbEntity
  8
ProjItem
100
AcDbEllipse
 10
95.257
 20
141.289
 30
0
 11
0.2
 21
1.22465e-17
 31
0
 40
1
 41
0
 42
2.09456
  0
LINE
  5
A14
330
A02
100
AcDbEntity
  8
ProjItem
100
AcDbLine
 10
95.157
 20
141.462
 30
0
 11
89.0109
 21
137.913
 31
0
  0
ELLIPSE
  5
A15
330
A02
100
AcDbEntity
  8
ProjItem
100
AcDbEllipse
 10
89.1109
 20
137.739
 30
0
 11
0.2
 21
1.22465e-17
 31
0
 40
1
 41
3.14159
 42
4.18879
  0
LINE
  5
A16
330
A02
100
AcDbEntity
  8
ProjItem
100
AcDbLine
 10
89.0109
 20
137.566
 30
0
 11
89.5865
 21
137.234
 31
0
  0
ELLIPSE
  5
A17
330
A02
100
AcDbEntity
  8
ProjItem
100
AcDbEllipse
 10
88.7865
 20
135.848
 30
0
 11
-1.6
 21
9.79717e-17
 31
0
 40
1
 41
-5.23599
 42
-2.0944
  0
LINE
  5
A18
330
A02
100
AcDbEntity
  8
ProjItem
100
AcDbLine
 10
87.9865
 20
134.463
 30
0
 11
87.157
 21
134.941
 31
0
  0
ELLIPSE
  5
A19
330
A02
100
AcDbEntity
  8
ProjItem
100
AcDbEllipse
 10
87.082
 20
134.898
 30
0
 11
0.0866025
 21
5.30288e-18
 31
0
 40
1
 41
3.14159
 42
3.66519
  0
LINE
  5
A1A
330
A02
100
AcDbEntity
  8
ProjItem
100
AcDbLine
 10
87.007
 20
134.855
 30
0
 11
87.007
 21
127.292
 31
0
  0
ELLIPSE
  5
A1B
330
A02
100
AcDbEntity
  8
ProjItem
100
AcDbEllipse
 10
87.107
 20
127.292
 30
0
 11
0.1
 21
6.12323e-18
 31
0
 40
1
 41
3.14159
 42
5.23599
  0
LINE
  5
A1C
330
A02
100
AcDbEntity
  8
ProjItem
100
AcDbLine
 10
87.157
 20
127.205
 30
0
 11
87.9865
 21
127.684
 31
0
  0
ELLIPSE
  5
A1D
330
A02
100
AcDbEntity
  8
ProjItem
100
AcDbEllipse
 10
88.7865
 20
126.298
 30
0
 11
-1.6
 21
9.79717e-17
 31
0
 40
1
 41
-4.18879
 42
-1.0472
  0
LINE
  5
A1E
330
A02
100
AcDbEntity
  8
ProjItem
100
AcDbLine
 10
89.5865
 20
124.913
 30
0
 11
89.0093
 21
124.579
 31
0
  0
ELLIPSE
  5
A1F
330
A02
100
AcDbEntity
  8
ProjItem
100
AcDbEllipse
 10
89.1093
 20
124.406
 30
0
 11
0.2
 21
1.22465e-17
 31
0
 40
1
 41
3.14159
 42
4.18907
  0
LINE
  5
A20
330
A02
100
AcDbEntity
  8
ProjItem
100
AcDbLine
 10
89.0093
 20
124.233
 30
0
 11
95.1571
 21
120.686
 31
0
  0
ELLIPSE
  5
A21
330
A02
100
AcDbEntity
  8
ProjItem
100
AcDbEllipse
 10
95.257
 20
120.859
 30
0
 11
0.2
 21
1.22465e-17
 31
0
 40
1
 41
4.18907
 42
0
  0
LINE
  5
A22
330
A02
100
AcDbEntity
  8
ProjItem
100
AcDbLine
 10
95.457
 20
120.859
 30
0
 11
95.457
 21
121.523
 31
0
  0
ELLIPSE
  5
A23
330
A02
100
AcDbEntity
  8
ProjItem
100
AcDbEllipse
 10
97.057
 20
121.523
 30
0
 11
-1.6
 21
9.79717e-17
 31
0
 40
1
 41
-3.14159
 42
-0
  0
LINE
  5
A24
330
A02
100
AcDbEntity
  8
ProjItem
100
AcDbLine
 10
98.657
 20
121.523
 30
0
 11
98.657
 21
120.858
 31
0
  0
ELLIPSE
  5
A25
330
A02
100
AcDbEntity
  8
ProjItem
100
AcDbEllipse
 10
98.857
 20
120.858
 30
0
 11
0.2
 21
1.22465e-17
 31
0
 40
1
 41
3.14159
 42
5.23603
  0
LINE
  5
A26
330
A02
100
AcDbEntity
  8
ProjItem
100
AcDbLine
 10
98.9571
 20
120.685
 30
0
 11
105.104
 21
124.234
 31
0
  0
ELLIPSE
  5
A27
330
A02
100
AcDbEntity
  8
ProjItem
100
AcDbEllipse
 10
105.004
 20
124.407
 30
0
 11
0.2
 21
1.22465e-17
 31
0
 40
1
 41
5.23603
 42
1.0472
  0
LINE
  5
A28
330
A02
100
AcDbEntity
  8
ProjItem
100
AcDbLine
 10
105.104
 20
124.58
 30
0
 11
104.528
 21
124.913
 31
0
  0
ELLIPSE
  5
A29
330
A02
100
AcDbEntity
  8
ProjItem
100
AcDbEllipse
 10
105.328
 20
126.298
 30
0
 11
-1.6
 21
9.79717e-17
 31
0
 40
1
 41
-2.0944
 42
-0
  0
LINE
  5
A2A
330
A02
100
AcDbEntity
  8
ProjItem
100
AcDbLine
 10
106.128
 20
127.684
 30
0
 11
106.957
 21
127.205
 31
0
  0
ELLIPSE
  5
A2B
330
A02
100
AcDbEntity
  8
ProjItem
100
AcDbEllipse
 10
107.032
 20
127.248
 30
0
 11
0.0866025
 21
5.30288e-18
 31
0
 40
1
 41
3.66519
 42
0.523599
  0
LINE
  5
A2C
330
A02
100
AcDbEntity
  8
ProjItem
100
AcDbLine
 10
107.107
 20
127.292
 30
0
 11
107.107
 21
134.855
 31
0
  0
ELLIPSE
  5
A2D
330
A02
100
AcDbEntity
  8
ProjItem
100
AcDbEllipse
 10
107.032
 20
134.898
 30
0
 11
0.0866025
 21
5.30288e-18
 31
0
 40
1
 41
5.75959
 42
2.61799
  0
LINE
  5
A2E
330
A02
100
AcDbEntity
  8
ProjItem
100
AcDbLine
 10
106.957
 20
134.941
 30
0
 11
106.128
 21
134.463
 31
0
  0
ELLIPSE
  5
A2F
330
A02
100
AcDbEntity
  8
ProjItem
100
AcDbEllipse
 10
105.328
 20
135.848
 30
0
 11
-1.6
 21
9.79717e-17
 31
0
 40
1
 41
-1.0472
 42
-0
  0
LINE
  5
A30
330
A02
100
AcDbEntity
  8
ProjItem
100
AcDbLine
 10
104.528
 20
137.234
 30
0
 11
105.102
 21
137.565
 31
0
  0
ELLIPSE
  5
A31
330
A02
100
AcDbEntity
  8
ProjItem
100
AcDbEllipse
 10
105.002
 20
137.739
 30
0
 11
0.2
 21
1.22465e-17
 31
0
 40
1
 41
5.23599
 42
1.04674
  0
LINE
  5
A32
330
A02
100
AcDbEntity
  8
ProjItem
100
AcDbLine
 10
105.102
 20
137.912
 30
0
 11
98.9571
 21
141.463
 31
0
  0
ELLIPSE
  5
A33
330
A02
100
AcDbEntity
  8
ProjItem
100
AcDbEllipse
 10
98.857
 20
141.29
 30
0
 11
0.2
 21
1.22465e-17
 31
0
 40
1
 41
1.04674
 42
3.14159
  0
LINE
  5
A34
330
A02
100
AcDbEntity
  8
ProjItem
100
AcDbLine
 10
98.657
 20
141.29
 30
0
 11
98.657
 21
140.623
 31
0
  0
ELLIPSE
  5
A35
330
A02
100
AcDbEntity
  8
ProjItem
100
AcDbEllipse
 10
97.057
 20
128.843
 30
0
 11
0.5
 21
3.06162e-17
 31
0
 40
1
 41
0
 42
3.14159
  0
ELLIPSE
  5
A36
330
A02
100
AcDbEntity
  8
ProjItem
100
AcDbEllipse
 10
88.8298
 20
135.823
 30
0
 11
-3.57185
 21
2.18712e-16
 31
0
 40
1
 41
-3.14159
 42
-2.34566
  0
LINE
  5
A37
330
A02
100
AcDbEntity
  8
ProjItem
100
AcDbLine
 10
92.3686
 20
135.338
 30
0
 11
101.746
 21
135.338
 31
0
  0
ELLIPSE
  5
A38
330
A02
100
AcDbEntity
  8
ProjItem
100
AcDbEllipse
 10
105.284
 20
135.823
 30
0
 11
-3.57185
 21
2.18712e-16
 31
0
 40
1
 41
-0.795934
 42
-6.14697
  0
LINE
  5
A39
330
A02
100
AcDbEntity
  8
ProjItem
100
AcDbLine
 10
102.785
 20
138.375
 30
0
 11
100.49
 21
139.7
 31
0
  0
ELLIPSE
  5
A3A
330
A02
100
AcDbEntity
  8
ProjItem
100
AcDbEllipse
 10
97.057
 20
140.573
 30
0
 11
-3.5425
 21
2.16915e-16
 31
0
 40
1
 41
-6.03424
 42
-3.39054
  0
LINE
  5
A3B
330
A02
100
AcDbEntity
  8
ProjItem
100
AcDbLine
 10
93.6238
 20
139.7
 30
0
 11
91.3287
 21
138.375
 31
0
  0
ELLIPSE
  5
A3C
330
A02
100
AcDbEntity
  8
ProjItem
100
AcDbEllipse
 10
88.7865
 20
135.848
 30
0
 11
-3.66141
 21
2.24197e-16
 31
0
 40
1
 41
-4.96566
 42
-4.18234
  0
LINE
  5
A3D
330
A02
100
AcDbEntity
  8
ProjItem
100
AcDbLine
 10
87.869
 20
132.304
 30
0
 11
87.869
 21
129.843
 31
0
  0
ELLIPSE
  5
A3E
330
A02
100
AcDbEntity
  8
ProjItem
100
AcDbEllipse
 10
88.7865
 20
126.298
 30
0
 11
-3.66141
 21
2.24197e-16
 31
0
 40
1
 41
-2.10084
 42
-1.31752
  0
LINE
  5
A3F
330
A02
100
AcDbEntity
  8
ProjItem
100
AcDbLine
 10
90.6376
 20
129.457
 30
0
 11
90.6376
 21
132.689
 31
0
  0
ELLIPSE
  5
A40
330
A02
100
AcDbEntity
  8
ProjItem
100
AcDbEllipse
 10
97.357
 20
133.883
 30
0
 11
0.1
 21
6.12323e-18
 31
0
 40
1
 41
1.5708
 42
3.14159
  0
LINE
  5
A41
330
A02
100
AcDbEntity
  8
ProjItem
100
AcDbLine
 10
97.257
 20
133.883
 30
0
 11
97.257
 21
133.273
 31
0
  0
ELLIPSE
  5
A42
330
A02
100
AcDbEntity
  8
ProjItem
100
AcDbEllipse
 10
97.357
 20
133.273
 30
0
 11
0.1
 21
6.12323e-18
 31
0
 40
1
 41
3.14159
 42
4.71239
  0
LINE
  5
A43
330
A02
100
AcDbEntity
  8
ProjItem
100
AcDbLine
 10
97.357
 20
133.173
 30
0
 11
98.427
 21
133.173
 31
0
  0
ELLIPSE
  5
A44
330
A02
100
AcDbEntity
  8
ProjItem
100
AcDbEllipse
 10
98.427
 20
133.273
 30
0
 11
0.1
 21
6.12323e-18
 31
0
 40
1
 41
4.71239
 42
0
  0
LINE
  5
A45
330
A02
100
AcDbEntity
  8
ProjItem
100
AcDbLine
 10
98.527
 20
133.273
 30
0
 11
98.527
 21
133.531
 31
0
  0
LINE
  5
A46
330
A02
100
AcDbEntity
  8
ProjItem
100
AcDbLine
 10
98.527
 20
133.531
 30
0
 11
98.8063
 21
133.81
 31
0
  0
ELLIPSE
  5
A47
330
A02
100
AcDbEntity
  8
ProjItem
100
AcDbEllipse
 10
98.58
 20
134.036
 30
0
 11
0.32
 21
1.95943e-17
 31
0
 40
1
 41
5.49774
 42
0
  0
LINE
  5
A48
330
A02
100
AcDbEntity
  8
ProjItem
100
AcDbLine
 10
98.3537
 20
134.262
 30
0
 11
98.0745
 21
133.983
 31
0
  0
LINE
  5
A49
330
A02
100
AcDbEntity
  8
ProjItem
100
AcDbLine
 10
98.0745
 20
133.983
 30
0
 11
97.357
 21
133.983
 31
0
  0
ELLIPSE
  5
A4A
330
A02
100
AcDbEntity
  8
ProjItem
100
AcDbEllipse
 10
96.757
 20
133.883
 30
0
 11
0.1
 21
6.12323e-18
 31
0
 40
1
 41
0
 42
1.5708
  0
LINE
  5
A4B
330
A02
100
AcDbEntity
  8
ProjItem
100
AcDbLine
 10
96.757
 20
133.983
 30
0
 11
96.0396
 21
133.983
 31
0
  0
LINE
  5
A4C
330
A02
100
AcDbEntity
  8
ProjItem
100
AcDbLine
 10
96.0396
 20
133.983
 30
0
 11
95.7604
 21
134.262
 31
0
  0
ELLIPSE
  5
A4D
330
A02
100
AcDbEntity
  8
ProjItem
100
AcDbEllipse
 10
95.5341
 20
134.036
 30
0
 11
0.32
 21
1.95943e-17
 31
0
 40
1
 41
0.785444
 42
3.92704
  0
LINE
  5
A4E
330
A02
100
AcDbEntity
  8
ProjItem
100
AcDbLine
 10
95.3078
 20
133.81
 30
0
 11
95.587
 21
133.531
 31
0
  0
LINE
  5
A4F
330
A02
100
AcDbEntity
  8
ProjItem
100
AcDbLine
 10
95.587
 20
133.531
 30
0
 11
95.587
 21
133.273
 31
0
  0
ELLIPSE
  5
A50
330
A02
100
AcDbEntity
  8
ProjItem
100
AcDbEllipse
 10
95.687
 20
133.273
 30
0
 11
0.1
 21
6.12323e-18
 31
0
 40
1
 41
3.14159
 42
4.71239
  0
LINE
  5
A51
330
A02
100
AcDbEntity
  8
ProjItem
100
AcDbLine
 10
95.687
 20
133.173
 30
0
 11
96.757
 21
133.173
 31
0
  0
ELLIPSE
  5
A52
330
A02
100
AcDbEntity
  8
ProjItem
100
AcDbEllipse
 10
96.757
 20
133.273
 30
0
 11
0.1
 21
6.12323e-18
 31
0
 40
1
 41
4.71239
 42
0
  0
LINE
  5
A53
330
A02
100
AcDbEntity
  8
ProjItem
100
AcDbLine
 10
96.857
 20
133.273
 30
0
 11
96.857
 21
133.883
 31
0
  0
ELLIPSE
  5
A54
330
A02
100
AcDbEntity
  8
ProjItem
100
AcDbEllipse
 10
88.8298
 20
126.323
 30
0
 11
-3.62564
 21
2.22007e-16
 31
0
 40
1
 41
-3.14159
 42
-3.02237
  0
LINE
  5
A55
330
A02
100
AcDbEntity
  8
ProjItem
100
AcDbLine
 10
91.4164
 20
123.783
 30
0
 11
93.5898
 21
122.528
 31
0
  0
ELLIPSE
  5
A56
330
A02
100
AcDbEntity
  8
ProjItem
100
AcDbEllipse
 10
97.057
 20
121.573
 30
0
 11
-3.5963
 21
2.2021e-16
 31
0
 40
1
 41
-2.87294
 42
-0.268654
  0
LINE
  5
A57
330
A02
100
AcDbEntity
  8
ProjItem
100
AcDbLine
 10
100.524
 20
122.528
 30
0
 11
102.698
 21
123.783
 31
0
  0
ELLIPSE
  5
A58
330
A02
100
AcDbEntity
  8
ProjItem
100
AcDbEllipse
 10
105.284
 20
126.323
 30
0
 11
-3.62564
 21
2.22007e-16
 31
0
 40
1
 41
-0.119221
 42
-5.50675
  0
LINE
  5
A59
330
A02
100
AcDbEntity
  8
ProjItem
100
AcDbLine
 10
101.684
 20
126.754
 30
0
 11
92.4297
 21
126.754
 31
0
  0
ELLIPSE
  5
A5A
330
A02
100
AcDbEntity
  8
ProjItem
100
AcDbEllipse
 10
105.328
 20
135.848
 30
0
 11
-3.71521
 21
2.27491e-16
 31
0
 40
1
 41
-5.21735
 42
-4.47778
  0
LINE
  5
A5B
330
A02
100
AcDbEntity
  8
ProjItem
100
AcDbLine
 10
103.53
 20
132.597
 30
0
 11
103.53
 21
129.55
 31
0
  0
ELLIPSE
  5
A5C
330
A02
100
AcDbEntity
  8
ProjItem
100
AcDbEllipse
 10
105.328
 20
126.298
 30
0
 11
-3.71521
 21
2.27491e-16
 31
0
 40
1
 41
-1.80541
 42
-1.06584
  0
LINE
  5
A5D
330
A02
100
AcDbEntity
  8
ProjItem
100
AcDbLine
 10
106.191
 20
129.912
 30
0
 11
106.191
 21
132.235
 31
0
  0
LINE
  5
A5E
330
A02
100
AcDbEntity
  8
ProjItem
100
AcDbLine
 10
98.5808
 20
131.567
 30
0
 11
95.5332
 21
131.567
 31
0
  0
LINE
  5
A5F
330
A02
100
AcDbEntity
  8
ProjItem
100
AcDbLine
 10
95.5332
 20
131.567
 30
0
 11
95.5332
 21
129.489
 31
0
  0
LINE
  5
A60
330
A02
100
AcDbEntity
  8
ProjItem
100
AcDbLine
 10
95.5332
 20
129.489
 30
0
 11
98.5808
 21
129.489
 31
0
  0
LINE
  5
A61
330
A02
100
AcDbEntity
  8
ProjItem
100
AcDbLine
 10
98.5808
 20
129.489
 30
0
 11
98.5808
 21
131.567
 31
0
  0
SPLINE
  5
A62
330
A02
100
AcDbEntity
  8
ProjItem
100
AcDbSpline
210
0
220
0
230
1
 70
8
 71
3
 72
11
 73
7
 74
0
 40
0
 40
0
 40
0
 40
0
 40
0.493204
 40
0.493204
 40
0.493204
 40
1
 40
1
 40
1
 40
1
 10
102.103
 20
128.93
 30
0
 10
102.103
 20
128.856
 30
0
 10
102.091
 20
128.776
 30
0
 10
102.046
 20
128.715
 30
0
 10
102
 20
128.651
 30
0
 10
101.922
 20
128.615
 30
0
 10
101.845
 20
128.614
 30
0
  0
SPLINE
  5
A63
330
A02
100
AcDbEntity
  8
ProjItem
100
AcDbSpline
210
0
220
0
230
1
 70
8
 71
3
 72
11
 73
7
 74
0
 40
0
 40
0
 40
0
 40
0
 40
0.493104
 40
0.493104
 40
0.493104
 40
1
 40
1
 40
1
 40
1
 10
101.89
 20
129.205
 30
0
 10
101.954
 20
129.205
 30
0
 10
102.015
 20
129.169
 30
0
 10
102.051
 20
129.117
 30
0
 10
102.087
 20
129.06
 30
0
 10
102.105
 20
128.998
 30
0
 10
102.103
 20
128.93
 30
0
  0
SPLINE
  5
A64
330
A02
100
AcDbEntity
  8
ProjItem
100
AcDbSpline
210
0
220
0
230
1
 70
8
 71
2
 72
8
 73
5
 74
0
 40
0
 40
0
 40
0
 40
0.472819
 40
0.472819
 40
1
 40
1
 40
1
 10
101.716
 20
129.077
 30
0
 10
101.736
 20
129.128
 30
0
 10
101.777
 20
129.165
 30
0
 10
101.826
 20
129.205
 30
0
 10
101.89
 20
129.205
 30
0
  0
SPLINE
  5
A65
330
A02
100
AcDbEntity
  8
ProjItem
100
AcDbSpline
210
0
220
0
230
1
 70
8
 71
3
 72
11
 73
7
 74
0
 40
0
 40
0
 40
0
 40
0
 40
0.478083
 40
0.478083
 40
0.478083
 40
1
 40
1
 40
1
 40
1
 10
101.619
 20
128.771
 30
0
 10
101.649
 20
128.813
 30
0
 10
101.657
 20
128.866
 30
0
 10
101.67
 20
128.915
 30
0
 10
101.681
 20
128.97
 30
0
 10
101.696
 20
129.024
 30
0
 10
101.716
 20
129.077
 30
0
  0
SPLINE
  5
A66
330
A02
100
AcDbEntity
  8
ProjItem
100
AcDbSpline
210
0
220
0
230
1
 70
8
 71
2
 72
6
 73
3
 74
0
 40
0
 40
0
 40
0
 40
1
 40
1
 40
1
 10
101.555
 20
128.743
 30
0
 10
101.593
 20
128.743
 30
0
 10
101.619
 20
128.771
 30
0
  0
SPLINE
  5
A67
330
A02
100
AcDbEntity
  8
ProjItem
100
AcDbSpline
210
0
220
0
230
1
 70
8
 71
3
 72
11
 73
7
 74
0
 40
0
 40
0
 40
0
 40
0
 40
0.478457
 40
0.478457
 40
0.478457
 40
1
 40
1
 40
1
 40
1
 10
101.448
 20
128.909
 30
0
 10
101.447
 20
128.873
 30
0
 10
101.453
 20
128.839
 30
0
 10
101.466
 20
128.805
 30
0
 10
101.482
 20
128.771
 30
0
 10
101.516
 20
128.742
 30
0
 10
101.555
 20
128.743
 30
0
  0
SPLINE
  5
A68
330
A02
100
AcDbEntity
  8
ProjItem
100
AcDbSpline
210
0
220
0
230
1
 70
8
 71
3
 72
11
 73
7
 74
0
 40
0
 40
0
 40
0
 40
0
 40
0.51374
 40
0.51374
 40
0.51374
 40
1
 40
1
 40
1
 40
1
 10
101.577
 20
129.085
 30
0
 10
101.536
 20
129.081
 30
0
 10
101.494
 20
129.06
 30
0
 10
101.473
 20
129.024
 30
0
 10
101.455
 20
128.988
 30
0
 10
101.446
 20
128.95
 30
0
 10
101.448
 20
128.909
 30
0
  0
LINE
  5
A69
330
A02
100
AcDbEntity
  8
ProjItem
100
AcDbLine
 10
101.577
 20
129.186
 30
0
 11
101.577
 21
129.085
 31
0
  0
SPLINE
  5
A6A
330
A02
100
AcDbEntity
  8
ProjItem
100
AcDbSpline
210
0
220
0
230
1
 70
8
 71
3
 72
11
 73
7
 74
0
 40
0
 40
0
 40
0
 40
0
 40
0.504343
 40
0.504343
 40
0.504343
 40
1
 40
1
 40
1
 40
1
 10
101.365
 20
128.905
 30
0
 10
101.365
 20
128.971
 30
0
 10
101.377
 20
129.039
 30
0
 10
101.413
 20
129.095
 30
0
 10
101.448
 20
129.151
 30
0
 10
101.512
 20
129.185
 30
0
 10
101.577
 20
129.186
 30
0
  0
SPLINE
  5
A6B
330
A02
100
AcDbEntity
  8
ProjItem
100
AcDbSpline
210
0
220
0
230
1
 70
8
 71
3
 72
11
 73
7
 74
0
 40
0
 40
0
 40
0
 40
0
 40
0.490091
 40
0.490091
 40
0.490091
 40
1
 40
1
 40
1
 40
1
 10
101.562
 20
128.642
 30
0
 10
101.502
 20
128.641
 30
0
 10
101.443
 20
128.675
 30
0
 10
101.411
 20
128.726
 30
0
 10
101.377
 20
128.779
 30
0
 10
101.365
 20
128.843
 30
0
 10
101.365
 20
128.905
 30
0
  0
SPLINE
  5
A6C
330
A02
100
AcDbEntity
  8
ProjItem
100
AcDbSpline
210
0
220
0
230
1
 70
8
 71
3
 72
8
 73
4
 74
0
 40
0
 40
0
 40
0
 40
0
 40
1
 40
1
 40
1
 40
1
 10
101.718
 20
128.751
 30
0
 10
101.691
 20
128.69
 30
0
 10
101.631
 20
128.639
 30
0
 10
101.562
 20
128.642
 30
0
  0
SPLINE
  5
A6D
330
A02
100
AcDbEntity
  8
ProjItem
100
AcDbSpline
210
0
220
0
230
1
 70
8
 71
3
 72
8
 73
4
 74
0
 40
0
 40
0
 40
0
 40
0
 40
1
 40
1
 40
1
 40
1
 10
101.797
 20
129.021
 30
0
 10
101.766
 20
128.932
 30
0
 10
101.757
 20
128.837
 30
0
 10
101.718
 20
128.751
 30
0
  0
SPLINE
  5
A6E
330
A02
100
AcDbEntity
  8
ProjItem
100
AcDbSpline
210
0
220
0
230
1
 70
8
 71
3
 72
8
 73
4
 74
0
 40
0
 40
0
 40
0
 40
0
 40
1
 40
1
 40
1
 40
1
 10
101.895
 20
129.103
 30
0
 10
101.846
 20
129.106
 30
0
 10
101.811
 20
129.064
 30
0
 10
101.797
 20
129.021
 30
0
  0
SPLINE
  5
A6F
330
A02
100
AcDbEntity
  8
ProjItem
100
AcDbSpline
210
0
220
0
230
1
 70
8
 71
3
 72
11
 73
7
 74
0
 40
0
 40
0
 40
0
 40
0
 40
0.492499
 40
0.492499
 40
0.492499
 40
1
 40
1
 40
1
 40
1
 10
102.02
 20
128.926
 30
0
 10
102.021
 20
128.967
 30
0
 10
102.012
 20
129.005
 30
0
 10
101.994
 20
129.041
 30
0
 10
101.974
 20
129.077
 30
0
 10
101.936
 20
129.103
 30
0
 10
101.895
 20
129.103
 30
0
  0
SPLINE
  5
A70
330
A02
100
AcDbEntity
  8
ProjItem
100
AcDbSpline
210
0
220
0
230
1
 70
8
 71
3
 72
11
 73
7
 74
0
 40
0
 40
0
 40
0
 40
0
 40
0.469054
 40
0.469054
 40
0.469054
 40
1
 40
1
 40
1
 40
1
 10
101.845
 20
128.715
 30
0
 10
101.892
 20
128.72
 30
0
 10
101.941
 20
128.736
 30
0
 10
101.972
 20
128.774
 30
0
 10
102.005
 20
128.819
 30
0
 10
102.021
 20
128.87
 30
0
 10
102.02
 20
128.926
 30
0
  0
LINE
  5
A71
330
A02
100
AcDbEntity
  8
ProjItem
100
AcDbLine
 10
101.845
 20
128.614
 30
0
 11
101.845
 21
128.715
 31
0
  0
LINE
  5
A72
330
A02
100
AcDbEntity
  8
ProjItem
100
AcDbLine
 10
101.466
 20
129.436
 30
0
 11
101.466
 21
129.343
 31
0
  0
LINE
  5
A73
330
A02
100
AcDbEntity
  8
ProjItem
100
AcDbLine
 10
101.374
 20
129.436
 30
0
 11
101.466
 21
129.436
 31
0
  0
LINE
  5
A74
330
A02
100
AcDbEntity
  8
ProjItem
100
AcDbLine
 10
101.374
 20
129.343
 30
0
 11
101.374
 21
129.436
 31
0
  0
LINE
  5
A75
330
A02
100
AcDbEntity
  8
ProjItem
100
AcDbLine
 10
101.466
 20
129.343
 30
0
 11
101.374
 21
129.343
 31
0
  0
LINE
  5
A76
330
A02
100
AcDbEntity
  8
ProjItem
100
AcDbLine
 10
102.094
 20
129.436
 30
0
 11
102.094
 21
129.343
 31
0
  0
LINE
  5
A77
330
A02
100
AcDbEntity
  8
ProjItem
100
AcDbLine
 10
101.568
 20
129.436
 30
0
 11
102.094
 21
129.436
 31
0
  0
LINE
  5
A78
330
A02
100
AcDbEntity
  8
ProjItem
100
AcDbLine
 10
101.568
 20
129.343
 30
0
 11
101.568
 21
129.436
 31
0
  0
LINE
  5
A79
330
A02
100
AcDbEntity
  8
ProjItem
100
AcDbLine
 10
102.094
 20
129.343
 30
0
 11
101.568
 21
129.343
 31
0
  0
LINE
  5
A7A
330
A02
100
AcDbEntity
  8
ProjItem
100
AcDbLine
 10
102.094
 20
129.666
 30
0
 11
102.094
 21
129.574
 31
0
  0
LINE
  5
A7B
330
A02
100
AcDbEntity
  8
ProjItem
100
AcDbLine
 10
101.812
 20
129.666
 30
0
 11
102.094
 21
129.666
 31
0
  0
SPLINE
  5
A7C
330
A02
100
AcDbEntity
  8
ProjItem
100
AcDbSpline
210
0
220
0
230
1
 70
8
 71
3
 72
11
 73
7
 74
0
 40
0
 40
0
 40
0
 40
0
 40
0.478921
 40
0.478921
 40
0.478921
 40
1
 40
1
 40
1
 40
1
 10
101.642
 20
129.806
 30
0
 10
101.641
 20
129.764
 30
0
 10
101.657
 20
129.727
 30
0
 10
101.687
 20
129.698
 30
0
 10
101.722
 20
129.67
 30
0
 10
101.769
 20
129.667
 30
0
 10
101.812
 20
129.666
 30
0
  0
SPLINE
  5
A7D
330
A02
100
AcDbEntity
  8
ProjItem
100
AcDbSpline
210
0
220
0
230
1
 70
8
 71
3
 72
11
 73
7
 74
0
 40
0
 40
0
 40
0
 40
0
 40
0.468096
 40
0.468096
 40
0.468096
 40
1
 40
1
 40
1
 40
1
 10
101.78
 20
129.916
 30
0
 10
101.749
 20
129.915
 30
0
 10
101.715
 20
129.915
 30
0
 10
101.687
 20
129.899
 30
0
 10
101.656
 20
129.88
 30
0
 10
101.641
 20
129.842
 30
0
 10
101.642
 20
129.806
 30
0
  0
LINE
  5
A7E
330
A02
100
AcDbEntity
  8
ProjItem
100
AcDbLine
 10
102.094
 20
129.916
 30
0
 11
101.78
 21
129.916
 31
0
  0
LINE
  5
A7F
330
A02
100
AcDbEntity
  8
ProjItem
100
AcDbLine
 10
102.094
 20
130.008
 30
0
 11
102.094
 21
129.916
 31
0
  0
LINE
  5
A80
330
A02
100
AcDbEntity
  8
ProjItem
100
AcDbLine
 10
101.772
 20
130.008
 30
0
 11
102.094
 21
130.008
 31
0
  0
SPLINE
  5
A81
330
A02
100
AcDbEntity
  8
ProjItem
100
AcDbSpline
210
0
220
0
230
1
 70
8
 71
2
 72
6
 73
3
 74
0
 40
0
 40
0
 40
0
 40
1
 40
1
 40
1
 10
101.686
 20
130.003
 30
0
 10
101.729
 20
130.009
 30
0
 10
101.772
 20
130.008
 30
0
  0
SPLINE
  5
A82
330
A02
100
AcDbEntity
  8
ProjItem
100
AcDbSpline
210
0
220
0
230
1
 70
8
 71
3
 72
11
 73
7
 74
0
 40
0
 40
0
 40
0
 40
0
 40
0.464105
 40
0.464105
 40
0.464105
 40
1
 40
1
 40
1
 40
1
 10
101.559
 20
129.831
 30
0
 10
101.558
 20
129.868
 30
0
 10
101.567
 20
129.903
 30
0
 10
101.585
 20
129.935
 30
0
 10
101.605
 20
129.973
 30
0
 10
101.645
 20
129.995
 30
0
 10
101.686
 20
130.003
 30
0
  0
SPLINE
  5
A83
330
A02
100
AcDbEntity
  8
ProjItem
100
AcDbSpline
210
0
220
0
230
1
 70
8
 71
3
 72
8
 73
4
 74
0
 40
0
 40
0
 40
0
 40
0
 40
1
 40
1
 40
1
 40
1
 10
101.641
 20
129.666
 30
0
 10
101.587
 20
129.702
 30
0
 10
101.557
 20
129.767
 30
0
 10
101.559
 20
129.831
 30
0
  0
LINE
  5
A84
330
A02
100
AcDbEntity
  8
ProjItem
100
AcDbLine
 10
101.568
 20
129.666
 30
0
 11
101.641
 21
129.666
 31
0
  0
LINE
  5
A85
330
A02
100
AcDbEntity
  8
ProjItem
100
AcDbLine
 10
101.568
 20
129.574
 30
0
 11
101.568
 21
129.666
 31
0
  0
LINE
  5
A86
330
A02
100
AcDbEntity
  8
ProjItem
100
AcDbLine
 10
102.094
 20
129.574
 30
0
 11
101.568
 21
129.574
 31
0
  0
LINE
  5
A87
330
A02
100
AcDbEntity
  8
ProjItem
100
AcDbLine
 10
102.094
 20
130.243
 30
0
 11
102.094
 21
130.151
 31
0
  0
LINE
  5
A88
330
A02
100
AcDbEntity
  8
ProjItem
100
AcDbLine
 10
101.885
 20
130.243
 30
0
 11
102.094
 21
130.243
 31
0
  0
LINE
  5
A89
330
A02
100
AcDbEntity
  8
ProjItem
100
AcDbLine
 10
101.828
 20
130.306
 30
0
 11
101.885
 21
130.243
 31
0
  0
LINE
  5
A8A
330
A02
100
AcDbEntity
  8
ProjItem
100
AcDbLine
 10
102.094
 20
130.488
 30
0
 11
101.828
 21
130.306
 31
0
  0
LINE
  5
A8B
330
A02
100
AcDbEntity
  8
ProjItem
100
AcDbLine
 10
102.094
 20
130.599
 30
0
 11
102.094
 21
130.488
 31
0
  0
LINE
  5
A8C
330
A02
100
AcDbEntity
  8
ProjItem
100
AcDbLine
 10
101.766
 20
130.373
 30
0
 11
102.094
 21
130.599
 31
0
  0
LINE
  5
A8D
330
A02
100
AcDbEntity
  8
ProjItem
100
AcDbLine
 10
101.568
 20
130.59
 30
0
 11
101.766
 21
130.373
 31
0
  0
LINE
  5
A8E
330
A02
100
AcDbEntity
  8
ProjItem
100
AcDbLine
 10
101.568
 20
130.456
 30
0
 11
101.568
 21
130.59
 31
0
  0
LINE
  5
A8F
330
A02
100
AcDbEntity
  8
ProjItem
100
AcDbLine
 10
101.763
 20
130.243
 30
0
 11
101.568
 21
130.456
 31
0
  0
LINE
  5
A90
330
A02
100
AcDbEntity
  8
ProjItem
100
AcDbLine
 10
101.374
 20
130.243
 30
0
 11
101.763
 21
130.243
 31
0
  0
LINE
  5
A91
330
A02
100
AcDbEntity
  8
ProjItem
100
AcDbLine
 10
101.374
 20
130.151
 30
0
 11
101.374
 21
130.243
 31
0
  0
LINE
  5
A92
330
A02
100
AcDbEntity
  8
ProjItem
100
AcDbLine
 10
102.094
 20
130.151
 30
0
 11
101.374
 21
130.151
 31
0
  0
LINE
  5
A93
330
A02
100
AcDbEntity
  8
ProjItem
100
AcDbLine
 10
102.094
 20
130.793
 30
0
 11
102.094
 21
130.691
 31
0
  0
LINE
  5
A94
330
A02
100
AcDbEntity
  8
ProjItem
100
AcDbLine
 10
101.799
 20
130.793
 30
0
 11
102.094
 21
130.793
 31
0
  0
LINE
  5
A95
330
A02
100
AcDbEntity
  8
ProjItem
100
AcDbLine
 10
101.799
 20
130.977
 30
0
 11
101.799
 21
130.793
 31
0
  0
SPLINE
  5
A96
330
A02
100
AcDbEntity
  8
ProjItem
100
AcDbSpline
210
0
220
0
230
1
 70
8
 71
3
 72
11
 73
7
 74
0
 40
0
 40
0
 40
0
 40
0
 40
0.483848
 40
0.483848
 40
0.483848
 40
1
 40
1
 40
1
 40
1
 10
101.581
 20
131.245
 30
0
 10
101.644
 20
131.246
 30
0
 10
101.709
 20
131.22
 30
0
 10
101.75
 20
131.171
 30
0
 10
101.792
 20
131.116
 30
0
 10
101.798
 20
131.043
 30
0
 10
101.799
 20
130.977
 30
0
  0
SPLINE
  5
A97
330
A02
100
AcDbEntity
  8
ProjItem
100
AcDbSpline
210
0
220
0
230
1
 70
8
 71
2
 72
8
 73
5
 74
0
 40
0
 40
0
 40
0
 40
0.487124
 40
0.487124
 40
1
 40
1
 40
1
 10
101.381
 20
131.075
 30
0
 10
101.39
 20
131.148
 30
0
 10
101.444
 20
131.198
 30
0
 10
101.504
 20
131.245
 30
0
 10
101.581
 20
131.245
 30
0
  0
SPLINE
  5
A98
330
A02
100
AcDbEntity
  8
ProjItem
100
AcDbSpline
210
0
220
0
230
1
 70
8
 71
2
 72
6
 73
3
 74
0
 40
0
 40
0
 40
0
 40
1
 40
1
 40
1
 10
101.374
 20
130.965
 30
0
 10
101.373
 20
131.02
 30
0
 10
101.381
 20
131.075
 30
0
  0
LINE
  5
A99
330
A02
100
AcDbEntity
  8
ProjItem
100
AcDbLine
 10
101.374
 20
130.691
 30
0
 11
101.374
 21
130.965
 31
0
  0
LINE
  5
A9A
330
A02
100
AcDbEntity
  8
ProjItem
100
AcDbLine
 10
102.094
 20
130.691
 30
0
 11
101.374
 21
130.691
 31
0
  0
LINE
  5
A9B
330
A02
100
AcDbEntity
  8
ProjItem
100
AcDbLine
 10
101.716
 20
130.793
 30
0
 11
101.716
 21
130.976
 31
0
  0
LINE
  5
A9C
330
A02
100
AcDbEntity
  8
ProjItem
100
AcDbLine
 10
101.457
 20
130.793
 30
0
 11
101.716
 21
130.793
 31
0
  0
LINE
  5
A9D
330
A02
100
AcDbEntity
  8
ProjItem
100
AcDbLine
 10
101.457
 20
130.974
 30
0
 11
101.457
 21
130.793
 31
0
  0
SPLINE
  5
A9E
330
A02
100
AcDbEntity
  8
ProjItem
100
AcDbSpline
210
0
220
0
230
1
 70
8
 71
2
 72
6
 73
3
 74
0
 40
0
 40
0
 40
0
 40
1
 40
1
 40
1
 10
101.463
 20
131.062
 30
0
 10
101.456
 20
131.018
 30
0
 10
101.457
 20
130.974
 30
0
  0
SPLINE
  5
A9F
330
A02
100
AcDbEntity
  8
ProjItem
100
AcDbSpline
210
0
220
0
230
1
 70
8
 71
3
 72
8
 73
4
 74
0
 40
0
 40
0
 40
0
 40
0
 40
1
 40
1
 40
1
 40
1
 10
101.584
 20
131.143
 30
0
 10
101.532
 20
131.145
 30
0
 10
101.477
 20
131.114
 30
0
 10
101.463
 20
131.062
 30
0
  0
SPLINE
  5
AA0
330
A02
100
AcDbEntity
  8
ProjItem
100
AcDbSpline
210
0
220
0
230
1
 70
8
 71
3
 72
11
 73
7
 74
0
 40
0
 40
0
 40
0
 40
0
 40
0.505238
 40
0.505238
 40
0.505238
 40
1
 40
1
 40
1
 40
1
 10
101.716
 20
130.976
 30
0
 10
101.715
 20
131.017
 30
0
 10
101.712
 20
131.06
 30
0
 10
101.689
 20
131.095
 30
0
 10
101.666
 20
131.129
 30
0
 10
101.624
 20
131.144
 30
0
 10
101.584
 20
131.143
 30
0
  0
LINE
  5
AA1
330
A02
100
AcDbEntity
  8
ProjItem
100
AcDbLine
 10
102.094
 20
131.402
 30
0
 11
102.094
 21
131.294
 31
0
  0
LINE
  5
AA2
330
A02
100
AcDbEntity
  8
ProjItem
100
AcDbLine
 10
101.873
 20
131.487
 30
0
 11
102.094
 21
131.402
 31
0
  0
LINE
  5
AA3
330
A02
100
AcDbEntity
  8
ProjItem
100
AcDbLine
 10
101.873
 20
131.806
 30
0
 11
101.873
 21
131.487
 31
0
  0
LINE
  5
AA4
330
A02
100
AcDbEntity
  8
ProjItem
100
AcDbLine
 10
102.094
 20
131.891
 30
0
 11
101.873
 21
131.806
 31
0
  0
LINE
  5
AA5
330
A02
100
AcDbEntity
  8
ProjItem
100
AcDbLine
 10
102.094
 20
131.999
 30
0
 11
102.094
 21
131.891
 31
0
  0
LINE
  5
AA6
330
A02
100
AcDbEntity
  8
ProjItem
100
AcDbLine
 10
101.374
 20
131.703
 30
0
 11
102.094
 21
131.999
 31
0
  0
LINE
  5
AA7
330
A02
100
AcDbEntity
  8
ProjItem
100
AcDbLine
 10
101.374
 20
131.59
 30
0
 11
101.374
 21
131.703
 31
0
  0
LINE
  5
AA8
330
A02
100
AcDbEntity
  8
ProjItem
100
AcDbLine
 10
102.094
 20
131.294
 30
0
 11
101.374
 21
131.59
 31
0
  0
LINE
  5
AA9
330
A02
100
AcDbEntity
  8
ProjItem
100
AcDbLine
 10
101.588
 20
131.596
 30
0
 11
101.789
 21
131.519
 31
0
  0
SPLINE
  5
AAA
330
A02
100
AcDbEntity
  8
ProjItem
100
AcDbSpline
210
0
220
0
230
1
 70
8
 71
2
 72
6
 73
3
 74
0
 40
0
 40
0
 40
0
 40
1
 40
1
 40
1
 10
101.457
 20
131.647
 30
0
 10
101.526
 20
131.63
 30
0
 10
101.588
 20
131.596
 30
0
  0
SPLINE
  5
AAB
330
A02
100
AcDbEntity
  8
ProjItem
100
AcDbSpline
210
0
220
0
230
1
 70
8
 71
1
 72
4
 73
2
 74
0
 40
0
 40
0
 40
1
 40
1
 10
101.602
 20
131.702
 30
0
 10
101.457
 20
131.647
 30
0
  0
LINE
  5
AAC
330
A02
100
AcDbEntity
  8
ProjItem
100
AcDbLine
 10
101.789
 20
131.774
 30
0
 11
101.602
 21
131.702
 31
0
  0
LINE
  5
AAD
330
A02
100
AcDbEntity
  8
ProjItem
100
AcDbLine
 10
101.789
 20
131.519
 30
0
 11
101.789
 21
131.774
 31
0
  0
LINE
  5
AAE
330
A02
100
AcDbEntity
  8
ProjItem
100
AcDbLine
 10
102.094
 20
132.364
 30
0
 11
102.094
 21
132.094
 31
0
  0
SPLINE
  5
AAF
330
A02
100
AcDbEntity
  8
ProjItem
100
AcDbSpline
210
0
220
0
230
1
 70
8
 71
3
 72
11
 73
7
 74
0
 40
0
 40
0
 40
0
 40
0
 40
0.502169
 40
0.502169
 40
0.502169
 40
1
 40
1
 40
1
 40
1
 10
101.73
 20
132.713
 30
0
 10
101.826
 20
132.713
 30
0
 10
101.927
 20
132.69
 30
0
 10
102
 20
132.626
 30
0
 10
102.076
 20
132.563
 30
0
 10
102.095
 20
132.458
 30
0
 10
102.094
 20
132.364
 30
0
  0
SPLINE
  5
AB0
330
A02
100
AcDbEntity
  8
ProjItem
100
AcDbSpline
210
0
220
0
230
1
 70
8
 71
3
 72
8
 73
4
 74
0
 40
0
 40
0
 40
0
 40
0
 40
1
 40
1
 40
1
 40
1
 10
101.436
 20
132.595
 30
0
 10
101.506
 20
132.683
 30
0
 10
101.622
 20
132.714
 30
0
 10
101.73
 20
132.713
 30
0
  0
SPLINE
  5
AB1
330
A02
100
AcDbEntity
  8
ProjItem
100
AcDbSpline
210
0
220
0
230
1
 70
8
 71
2
 72
6
 73
3
 74
0
 40
0
 40
0
 40
0
 40
1
 40
1
 40
1
 10
101.384
 20
132.485
 30
0
 10
101.397
 20
132.546
 30
0
 10
101.436
 20
132.595
 30
0
  0
SPLINE
  5
AB2
330
A02
100
AcDbEntity
  8
ProjItem
100
AcDbSpline
210
0
220
0
230
1
 70
8
 71
2
 72
6
 73
3
 74
0
 40
0
 40
0
 40
0
 40
1
 40
1
 40
1
 10
101.374
 20
132.352
 30
0
 10
101.372
 20
132.419
 30
0
 10
101.384
 20
132.485
 30
0
  0
LINE
  5
AB3
330
A02
100
AcDbEntity
  8
ProjItem
100
AcDbLine
 10
101.374
 20
132.094
 30
0
 11
101.374
 21
132.352
 31
0
  0
LINE
  5
AB4
330
A02
100
AcDbEntity
  8
ProjItem
100
AcDbLine
 10
102.094
 20
132.094
 30
0
 11
101.374
 21
132.094
 31
0
  0
LINE
  5
AB5
330
A02
100
AcDbEntity
  8
ProjItem
100
AcDbLine
 10
102.011
 20
132.196
 30
0
 11
102.011
 21
132.355
 31
0
  0
LINE
  5
AB6
330
A02
100
AcDbEntity
  8
ProjItem
100
AcDbLine
 10
101.457
 20
132.196
 30
0
 11
102.011
 21
132.196
 31
0
  0
LINE
  5
AB7
330
A02
100
AcDbEntity
  8
ProjItem
100
AcDbLine
 10
101.457
 20
132.352
 30
0
 11
101.457
 21
132.196
 31
0
  0
SPLINE
  5
AB8
330
A02
100
AcDbEntity
  8
ProjItem
100
AcDbSpline
210
0
220
0
230
1
 70
8
 71
2
 72
6
 73
3
 74
0
 40
0
 40
0
 40
0
 40
1
 40
1
 40
1
 10
101.472
 20
132.48
 30
0
 10
101.455
 20
132.417
 30
0
 10
101.457
 20
132.352
 30
0
  0
SPLINE
  5
AB9
330
A02
100
AcDbEntity
  8
ProjItem
100
AcDbSpline
210
0
220
0
230
1
 70
8
 71
3
 72
11
 73
7
 74
0
 40
0
 40
0
 40
0
 40
0
 40
0.529386
 40
0.529386
 40
0.529386
 40
1
 40
1
 40
1
 40
1
 10
101.729
 20
132.611
 30
0
 10
101.673
 20
132.613
 30
0
 10
101.62
 20
132.603
 30
0
 10
101.57
 20
132.582
 30
0
 10
101.527
 20
132.56
 30
0
 10
101.489
 20
132.525
 30
0
 10
101.472
 20
132.48
 30
0
  0
SPLINE
  5
ABA
330
A02
100
AcDbEntity
  8
ProjItem
100
AcDbSpline
210
0
220
0
230
1
 70
8
 71
3
 72
8
 73
4
 74
0
 40
0
 40
0
 40
0
 40
0
 40
1
 40
1
 40
1
 40
1
 10
101.96
 20
132.537
 30
0
 10
101.9
 20
132.597
 30
0
 10
101.81
 20
132.611
 30
0
 10
101.729
 20
132.611
 30
0
  0
SPLINE
  5
ABB
330
A02
100
AcDbEntity
  8
ProjItem
100
AcDbSpline
210
0
220
0
230
1
 70
8
 71
3
 72
8
 73
4
 74
0
 40
0
 40
0
 40
0
 40
0
 40
1
 40
1
 40
1
 40
1
 10
102.011
 20
132.355
 30
0
 10
102.011
 20
132.418
 30
0
 10
102.006
 20
132.489
 30
0
 10
101.96
 20
132.537
 30
0
  0
LINE
  5
ABC
330
A02
100
AcDbEntity
  8
ProjItem
100
AcDbLine
 10
101.882
 20
133.091
 30
0
 11
101.882
 21
132.805
 31
0
  0
LINE
  5
ABD
330
A02
100
AcDbEntity
  8
ProjItem
100
AcDbLine
 10
101.799
 20
133.091
 30
0
 11
101.882
 21
133.091
 31
0
  0
LINE
  5
ABE
330
A02
100
AcDbEntity
  8
ProjItem
100
AcDbLine
 10
101.799
 20
132.805
 30
0
 11
101.799
 21
133.091
 31
0
  0
LINE
  5
ABF
330
A02
100
AcDbEntity
  8
ProjItem
100
AcDbLine
 10
101.882
 20
132.805
 30
0
 11
101.799
 21
132.805
 31
0
  0
LINE
  5
AC0
330
A02
100
AcDbEntity
  8
ProjItem
100
AcDbLine
 10
102.094
 20
133.313
 30
0
 11
102.094
 21
133.211
 31
0
  0
LINE
  5
AC1
330
A02
100
AcDbEntity
  8
ProjItem
100
AcDbLine
 10
101.374
 20
133.313
 30
0
 11
102.094
 21
133.313
 31
0
  0
LINE
  5
AC2
330
A02
100
AcDbEntity
  8
ProjItem
100
AcDbLine
 10
101.374
 20
133.211
 30
0
 11
101.374
 21
133.313
 31
0
  0
LINE
  5
AC3
330
A02
100
AcDbEntity
  8
ProjItem
100
AcDbLine
 10
102.094
 20
133.211
 30
0
 11
101.374
 21
133.211
 31
0
  0
LINE
  5
AC4
330
A02
100
AcDbEntity
  8
ProjItem
100
AcDbLine
 10
102.094
 20
133.608
 30
0
 11
102.094
 21
133.507
 31
0
  0
LINE
  5
AC5
330
A02
100
AcDbEntity
  8
ProjItem
100
AcDbLine
 10
101.374
 20
133.608
 30
0
 11
102.094
 21
133.608
 31
0
  0
LINE
  5
AC6
330
A02
100
AcDbEntity
  8
ProjItem
100
AcDbLine
 10
101.374
 20
133.507
 30
0
 11
101.374
 21
133.608
 31
0
  0
LINE
  5
AC7
330
A02
100
AcDbEntity
  8
ProjItem
100
AcDbLine
 10
102.094
 20
133.507
 30
0
 11
101.374
 21
133.507
 31
0
  0
SPLINE
  5
AC8
330
A02
100
AcDbEntity
  8
ProjItem
100
AcDbSpline
210
0
220
0
230
1
 70
8
 71
3
 72
11
 73
7
 74
0
 40
0
 40
0
 40
0
 40
0
 40
0.493204
 40
0.493204
 40
0.493204
 40
1
 40
1
 40
1
 40
1
 10
92.9906
 20
128.516
 30
0
 10
92.9905
 20
128.417
 30
0
 10
92.9747
 20
128.313
 30
0
 10
92.9152
 20
128.231
 30
0
 10
92.8546
 20
128.148
 30
0
 10
92.7519
 20
128.1
 30
0
 10
92.6495
 20
128.098
 30
0
  0
SPLINE
  5
AC9
330
A02
100
AcDbEntity
  8
ProjItem
100
AcDbSpline
210
0
220
0
230
1
 70
8
 71
3
 72
11
 73
7
 74
0
 40
0
 40
0
 40
0
 40
0
 40
0.493104
 40
0.493104
 40
0.493104
 40
1
 40
1
 40
1
 40
1
 10
92.7087
 20
128.878
 30
0
 10
92.7934
 20
128.878
 30
0
 10
92.8746
 20
128.831
 30
0
 10
92.9219
 20
128.762
 30
0
 10
92.9711
 20
128.69
 30
0
 10
92.9906
 20
128.602
 30
0
 10
92.9906
 20
128.516
 30
0
  0
SPLINE
  5
ACA
330
A02
100
AcDbEntity
  8
ProjItem
100
AcDbSpline
210
0
220
0
230
1
 70
8
 71
2
 72
8
 73
5
 74
0
 40
0
 40
0
 40
0
 40
0.472819
 40
0.472819
 40
1
 40
1
 40
1
 10
92.479
 20
128.709
 30
0
 10
92.5066
 20
128.777
 30
0
 10
92.5606
 20
128.826
 30
0
 10
92.6252
 20
128.878
 30
0
 10
92.7087
 20
128.878
 30
0
  0
SPLINE
  5
ACB
330
A02
100
AcDbEntity
  8
ProjItem
100
AcDbSpline
210
0
220
0
230
1
 70
8
 71
3
 72
11
 73
7
 74
0
 40
0
 40
0
 40
0
 40
0
 40
0.478083
 40
0.478083
 40
0.478083
 40
1
 40
1
 40
1
 40
1
 10
92.3514
 20
128.306
 30
0
 10
92.391
 20
128.362
 30
0
 10
92.402
 20
128.431
 30
0
 10
92.4188
 20
128.496
 30
0
 10
92.4335
 20
128.569
 30
0
 10
92.4535
 20
128.64
 30
0
 10
92.479
 20
128.709
 30
0
  0
SPLINE
  5
ACC
330
A02
100
AcDbEntity
  8
ProjItem
100
AcDbSpline
210
0
220
0
230
1
 70
8
 71
2
 72
6
 73
3
 74
0
 40
0
 40
0
 40
0
 40
1
 40
1
 40
1
 10
92.2675
 20
128.269
 30
0
 10
92.3177
 20
128.269
 30
0
 10
92.3514
 20
128.306
 30
0
  0
SPLINE
  5
ACD
330
A02
100
AcDbEntity
  8
ProjItem
100
AcDbSpline
210
0
220
0
230
1
 70
8
 71
3
 72
11
 73
7
 74
0
 40
0
 40
0
 40
0
 40
0
 40
0.478457
 40
0.478457
 40
0.478457
 40
1
 40
1
 40
1
 40
1
 10
92.1257
 20
128.488
 30
0
 10
92.1241
 20
128.44
 30
0
 10
92.1319
 20
128.395
 30
0
 10
92.1491
 20
128.351
 30
0
 10
92.1702
 20
128.306
 30
0
 10
92.2154
 20
128.268
 30
0
 10
92.2675
 20
128.269
 30
0
  0
SPLINE
  5
ACE
330
A02
100
AcDbEntity
  8
ProjItem
100
AcDbSpline
210
0
220
0
230
1
 70
8
 71
3
 72
11
 73
7
 74
0
 40
0
 40
0
 40
0
 40
0
 40
0.51374
 40
0.51374
 40
0.51374
 40
1
 40
1
 40
1
 40
1
 10
92.2962
 20
128.72
 30
0
 10
92.2417
 20
128.714
 30
0
 10
92.1869
 20
128.688
 30
0
 10
92.1588
 20
128.639
 30
0
 10
92.1321
 20
128.593
 30
0
 10
92.126
 20
128.54
 30
0
 10
92.1257
 20
128.488
 30
0
  0
LINE
  5
ACF
330
A02
100
AcDbEntity
  8
ProjItem
100
AcDbLine
 10
92.2962
 20
128.854
 30
0
 11
92.2962
 21
128.72
 31
0
  0
SPLINE
  5
AD0
330
A02
100
AcDbEntity
  8
ProjItem
100
AcDbSpline
210
0
220
0
230
1
 70
8
 71
3
 72
11
 73
7
 74
0
 40
0
 40
0
 40
0
 40
0
 40
0.504343
 40
0.504343
 40
0.504343
 40
1
 40
1
 40
1
 40
1
 10
92.0161
 20
128.482
 30
0
 10
92.0162
 20
128.569
 30
0
 10
92.0318
 20
128.659
 30
0
 10
92.0793
 20
128.734
 30
0
 10
92.1257
 20
128.807
 30
0
 10
92.2103
 20
128.851
 30
0
 10
92.2962
 20
128.854
 30
0
  0
SPLINE
  5
AD1
330
A02
100
AcDbEntity
  8
ProjItem
100
AcDbSpline
210
0
220
0
230
1
 70
8
 71
3
 72
11
 73
7
 74
0
 40
0
 40
0
 40
0
 40
0
 40
0.490091
 40
0.490091
 40
0.490091
 40
1
 40
1
 40
1
 40
1
 10
92.2763
 20
128.135
 30
0
 10
92.1965
 20
128.134
 30
0
 10
92.119
 20
128.179
 30
0
 10
92.0766
 20
128.246
 30
0
 10
92.0321
 20
128.316
 30
0
 10
92.0165
 20
128.4
 30
0
 10
92.0161
 20
128.482
 30
0
  0
SPLINE
  5
AD2
330
A02
100
AcDbEntity
  8
ProjItem
100
AcDbSpline
210
0
220
0
230
1
 70
8
 71
2
 72
8
 73
5
 74
0
 40
0
 40
0
 40
0
 40
0.53037
 40
0.53037
 40
1
 40
1
 40
1
 10
92.4816
 20
128.279
 30
0
 10
92.4517
 20
128.213
 30
0
 10
92.3939
 20
128.171
 30
0
 10
92.3406
 20
128.135
 30
0
 10
92.2763
 20
128.135
 30
0
  0
SPLINE
  5
AD3
330
A02
100
AcDbEntity
  8
ProjItem
100
AcDbSpline
210
0
220
0
230
1
 70
8
 71
3
 72
8
 73
4
 74
0
 40
0
 40
0
 40
0
 40
0
 40
1
 40
1
 40
1
 40
1
 10
92.5869
 20
128.636
 30
0
 10
92.5459
 20
128.519
 30
0
 10
92.5335
 20
128.393
 30
0
 10
92.4816
 20
128.279
 30
0
  0
SPLINE
  5
AD4
330
A02
100
AcDbEntity
  8
ProjItem
100
AcDbSpline
210
0
220
0
230
1
 70
8
 71
2
 72
8
 73
5
 74
0
 40
0
 40
0
 40
0
 40
0.55514
 40
0.55514
 40
1
 40
1
 40
1
 10
92.7152
 20
128.744
 30
0
 10
92.662
 20
128.744
 30
0
 10
92.6259
 20
128.706
 30
0
 10
92.6002
 20
128.674
 30
0
 10
92.5869
 20
128.636
 30
0
  0
SPLINE
  5
AD5
330
A02
100
AcDbEntity
  8
ProjItem
100
AcDbSpline
210
0
220
0
230
1
 70
8
 71
3
 72
11
 73
7
 74
0
 40
0
 40
0
 40
0
 40
0
 40
0.492499
 40
0.492499
 40
0.492499
 40
1
 40
1
 40
1
 40
1
 10
92.8809
 20
128.51
 30
0
 10
92.8822
 20
128.564
 30
0
 10
92.8706
 20
128.614
 30
0
 10
92.8461
 20
128.662
 30
0
 10
92.8206
 20
128.709
 30
0
 10
92.7698
 20
128.744
 30
0
 10
92.7152
 20
128.744
 30
0
  0
SPLINE
  5
AD6
330
A02
100
AcDbEntity
  8
ProjItem
100
AcDbSpline
210
0
220
0
230
1
 70
8
 71
3
 72
11
 73
7
 74
0
 40
0
 40
0
 40
0
 40
0
 40
0.469054
 40
0.469054
 40
0.469054
 40
1
 40
1
 40
1
 40
1
 10
92.6495
 20
128.232
 30
0
 10
92.7114
 20
128.239
 30
0
 10
92.7766
 20
128.26
 30
0
 10
92.8168
 20
128.31
 30
0
 10
92.8619
 20
128.366
 30
0
 10
92.8812
 20
128.439
 30
0
 10
92.8809
 20
128.51
 30
0
  0
LINE
  5
AD7
330
A02
100
AcDbEntity
  8
ProjItem
100
AcDbLine
 10
92.6495
 20
128.098
 30
0
 11
92.6495
 21
128.232
 31
0
  0
LINE
  5
AD8
330
A02
100
AcDbEntity
  8
ProjItem
100
AcDbLine
 10
92.9784
 20
129.207
 30
0
 11
92.9784
 21
129.073
 31
0
  0
LINE
  5
AD9
330
A02
100
AcDbEntity
  8
ProjItem
100
AcDbLine
 10
92.5886
 20
129.207
 30
0
 11
92.9784
 21
129.207
 31
0
  0
LINE
  5
ADA
330
A02
100
AcDbEntity
  8
ProjItem
100
AcDbLine
 10
92.5886
 20
129.45
 30
0
 11
92.5886
 21
129.207
 31
0
  0
SPLINE
  5
ADB
330
A02
100
AcDbEntity
  8
ProjItem
100
AcDbSpline
210
0
220
0
230
1
 70
8
 71
3
 72
11
 73
7
 74
0
 40
0
 40
0
 40
0
 40
0
 40
0.483848
 40
0.483848
 40
0.483848
 40
1
 40
1
 40
1
 40
1
 10
92.3014
 20
129.804
 30
0
 10
92.3851
 20
129.805
 30
0
 10
92.4707
 20
129.771
 30
0
 10
92.5248
 20
129.706
 30
0
 10
92.5795
 20
129.633
 30
0
 10
92.5876
 20
129.538
 30
0
 10
92.5886
 20
129.45
 30
0
  0
SPLINE
  5
ADC
330
A02
100
AcDbEntity
  8
ProjItem
100
AcDbSpline
210
0
220
0
230
1
 70
8
 71
3
 72
11
 73
7
 74
0
 40
0
 40
0
 40
0
 40
0
 40
0.487124
 40
0.487124
 40
0.487124
 40
1
 40
1
 40
1
 40
1
 10
92.0372
 20
129.58
 30
0
 10
92.0466
 20
129.64
 30
0
 10
92.0719
 20
129.701
 30
0
 10
92.1204
 20
129.741
 30
0
 10
92.1733
 20
129.783
 30
0
 10
92.2336
 20
129.804
 30
0
 10
92.3014
 20
129.804
 30
0
  0
SPLINE
  5
ADD
330
A02
100
AcDbEntity
  8
ProjItem
100
AcDbSpline
210
0
220
0
230
1
 70
8
 71
2
 72
6
 73
3
 74
0
 40
0
 40
0
 40
0
 40
1
 40
1
 40
1
 10
92.0283
 20
129.434
 30
0
 10
92.027
 20
129.507
 30
0
 10
92.0372
 20
129.58
 30
0
  0
LINE
  5
ADE
330
A02
100
AcDbEntity
  8
ProjItem
100
AcDbLine
 10
92.0283
 20
129.073
 30
0
 11
92.0283
 21
129.434
 31
0
  0
LINE
  5
ADF
330
A02
100
AcDbEntity
  8
ProjItem
100
AcDbLine
 10
92.9784
 20
129.073
 30
0
 11
92.0283
 21
129.073
 31
0
  0
LINE
  5
AE0
330
A02
100
AcDbEntity
  8
ProjItem
100
AcDbLine
 10
92.479
 20
129.207
 30
0
 11
92.479
 21
129.449
 31
0
  0
LINE
  5
AE1
330
A02
100
AcDbEntity
  8
ProjItem
100
AcDbLine
 10
92.1379
 20
129.207
 30
0
 11
92.479
 21
129.207
 31
0
  0
LINE
  5
AE2
330
A02
100
AcDbEntity
  8
ProjItem
100
AcDbLine
 10
92.1379
 20
129.446
 30
0
 11
92.1379
 21
129.207
 31
0
  0
SPLINE
  5
AE3
330
A02
100
AcDbEntity
  8
ProjItem
100
AcDbSpline
210
0
220
0
230
1
 70
8
 71
2
 72
6
 73
3
 74
0
 40
0
 40
0
 40
0
 40
1
 40
1
 40
1
 10
92.1463
 20
129.562
 30
0
 10
92.1361
 20
129.505
 30
0
 10
92.1379
 20
129.446
 30
0
  0
SPLINE
  5
AE4
330
A02
100
AcDbEntity
  8
ProjItem
100
AcDbSpline
210
0
220
0
230
1
 70
8
 71
3
 72
8
 73
4
 74
0
 40
0
 40
0
 40
0
 40
0
 40
1
 40
1
 40
1
 40
1
 10
92.3052
 20
129.67
 30
0
 10
92.2368
 20
129.672
 30
0
 10
92.164
 20
129.631
 30
0
 10
92.1463
 20
129.562
 30
0
  0
SPLINE
  5
AE5
330
A02
100
AcDbEntity
  8
ProjItem
100
AcDbSpline
210
0
220
0
230
1
 70
8
 71
3
 72
11
 73
7
 74
0
 40
0
 40
0
 40
0
 40
0
 40
0.505238
 40
0.505238
 40
0.505238
 40
1
 40
1
 40
1
 40
1
 10
92.479
 20
129.449
 30
0
 10
92.4782
 20
129.502
 30
0
 10
92.474
 20
129.559
 30
0
 10
92.4441
 20
129.606
 30
0
 10
92.414
 20
129.651
 30
0
 10
92.3578
 20
129.671
 30
0
 10
92.3052
 20
129.67
 30
0
  0
LINE
  5
AE6
330
A02
100
AcDbEntity
  8
ProjItem
100
AcDbLine
 10
92.6982
 20
130.315
 30
0
 11
92.6982
 21
129.938
 31
0
  0
LINE
  5
AE7
330
A02
100
AcDbEntity
  8
ProjItem
100
AcDbLine
 10
92.5886
 20
130.315
 30
0
 11
92.6982
 21
130.315
 31
0
  0
LINE
  5
AE8
330
A02
100
AcDbEntity
  8
ProjItem
100
AcDbLine
 10
92.5886
 20
129.938
 30
0
 11
92.5886
 21
130.315
 31
0
  0
LINE
  5
AE9
330
A02
100
AcDbEntity
  8
ProjItem
100
AcDbLine
 10
92.6982
 20
129.938
 30
0
 11
92.5886
 21
129.938
 31
0
  0
SPLINE
  5
AEA
330
A02
100
AcDbEntity
  8
ProjItem
100
AcDbSpline
210
0
220
0
230
1
 70
8
 71
3
 72
8
 73
4
 74
0
 40
0
 40
0
 40
0
 40
0
 40
1
 40
1
 40
1
 40
1
 10
92.899
 20
130.511
 30
0
 10
92.7885
 20
130.427
 30
0
 10
92.6437
 20
130.414
 30
0
 10
92.5098
 20
130.413
 30
0
  0
SPLINE
  5
AEB
330
A02
100
AcDbEntity
  8
ProjItem
100
AcDbSpline
210
0
220
0
230
1
 70
8
 71
3
 72
8
 73
4
 74
0
 40
0
 40
0
 40
0
 40
0
 40
1
 40
1
 40
1
 40
1
 10
92.9906
 20
130.736
 30
0
 10
92.9919
 20
130.652
 30
0
 10
92.9632
 20
130.566
 30
0
 10
92.899
 20
130.511
 30
0
  0
SPLINE
  5
AEC
330
A02
100
AcDbEntity
  8
ProjItem
100
AcDbSpline
210
0
220
0
230
1
 70
8
 71
3
 72
14
 73
10
 74
0
 40
0
 40
0
 40
0
 40
0
 40
0.497376
 40
0.497376
 40
0.497376
 40
0.743983
 40
0.743983
 40
0.743983
 40
1
 40
1
 40
1
 40
1
 10
92.5098
 20
131.058
 30
0
 10
92.6182
 20
131.058
 30
0
 10
92.7304
 20
131.05
 30
0
 10
92.8297
 20
131.002
 30
0
 10
92.8803
 20
130.979
 30
0
 10
92.9205
 20
130.944
 30
0
 10
92.9504
 20
130.897
 30
0
 10
92.9785
 20
130.847
 30
0
 10
92.9919
 20
130.793
 30
0
 10
92.9906
 20
130.736
 30
0
  0
SPLINE
  5
AED
330
A02
100
AcDbEntity
  8
ProjItem
100
AcDbSpline
210
0
220
0
230
1
 70
8
 71
3
 72
14
 73
10
 74
0
 40
0
 40
0
 40
0
 40
0
 40
0.223808
 40
0.223808
 40
0.223808
 40
0.480467
 40
0.480467
 40
0.480467
 40
1
 40
1
 40
1
 40
1
 10
92.0283
 20
130.736
 30
0
 10
92.0276
 20
130.786
 30
0
 10
92.0378
 20
130.833
 30
0
 10
92.0589
 20
130.879
 30
0
 10
92.0847
 20
130.931
 30
0
 10
92.1241
 20
130.97
 30
0
 10
92.1771
 20
130.995
 30
0
 10
92.2792
 20
131.048
 30
0
 10
92.3964
 20
131.059
 30
0
 10
92.5098
 20
131.058
 30
0
  0
SPLINE
  5
AEE
330
A02
100
AcDbEntity
  8
ProjItem
100
AcDbSpline
210
0
220
0
230
1
 70
8
 71
3
 72
14
 73
10
 74
0
 40
0
 40
0
 40
0
 40
0
 40
0.499106
 40
0.499106
 40
0.499106
 40
0.74526
 40
0.74526
 40
0.74526
 40
1
 40
1
 40
1
 40
1
 10
92.5098
 20
130.413
 30
0
 10
92.4009
 20
130.414
 30
0
 10
92.2882
 20
130.422
 30
0
 10
92.1885
 20
130.469
 30
0
 10
92.1381
 20
130.493
 30
0
 10
92.098
 20
130.528
 30
0
 10
92.0684
 20
130.575
 30
0
 10
92.0403
 20
130.625
 30
0
 10
92.0269
 20
130.678
 30
0
 10
92.0283
 20
130.736
 30
0
  0
SPLINE
  5
AEF
330
A02
100
AcDbEntity
  8
ProjItem
100
AcDbSpline
210
0
220
0
230
1
 70
8
 71
2
 72
10
 73
7
 74
0
 40
0
 40
0
 40
0
 40
0.476322
 40
0.476322
 40
0.744388
 40
0.744388
 40
1
 40
1
 40
1
 10
92.5094
 20
130.535
 30
0
 10
92.6235
 20
130.532
 30
0
 10
92.7344
 20
130.557
 30
0
 10
92.7988
 20
130.573
 30
0
 10
92.841
 20
130.623
 30
0
 10
92.8811
 20
130.672
 30
0
 10
92.8809
 20
130.736
 30
0
  0
SPLINE
  5
AF0
330
A02
100
AcDbEntity
  8
ProjItem
100
AcDbSpline
210
0
220
0
230
1
 70
8
 71
3
 72
11
 73
7
 74
0
 40
0
 40
0
 40
0
 40
0
 40
0.531941
 40
0.531941
 40
0.531941
 40
1
 40
1
 40
1
 40
1
 10
92.203
 20
130.595
 30
0
 10
92.2493
 20
130.563
 30
0
 10
92.3064
 20
130.551
 30
0
 10
92.3615
 20
130.543
 30
0
 10
92.4106
 20
130.537
 30
0
 10
92.4599
 20
130.534
 30
0
 10
92.5094
 20
130.535
 30
0
  0
SPLINE
  5
AF1
330
A02
100
AcDbEntity
  8
ProjItem
100
AcDbSpline
210
0
220
0
230
1
 70
8
 71
3
 72
8
 73
4
 74
0
 40
0
 40
0
 40
0
 40
0
 40
1
 40
1
 40
1
 40
1
 10
92.1379
 20
130.734
 30
0
 10
92.1365
 20
130.681
 30
0
 10
92.1611
 20
130.628
 30
0
 10
92.203
 20
130.595
 30
0
  0
SPLINE
  5
AF2
330
A02
100
AcDbEntity
  8
ProjItem
100
AcDbSpline
210
0
220
0
230
1
 70
8
 71
2
 72
10
 73
7
 74
0
 40
0
 40
0
 40
0
 40
0.467801
 40
0.467801
 40
0.736748
 40
0.736748
 40
1
 40
1
 40
1
 10
92.5094
 20
130.937
 30
0
 10
92.3971
 20
130.939
 30
0
 10
92.2879
 20
130.914
 30
0
 10
92.223
 20
130.9
 30
0
 10
92.1794
 20
130.85
 30
0
 10
92.1374
 20
130.8
 30
0
 10
92.1379
 20
130.734
 30
0
  0
SPLINE
  5
AF3
330
A02
100
AcDbEntity
  8
ProjItem
100
AcDbSpline
210
0
220
0
230
1
 70
8
 71
3
 72
11
 73
7
 74
0
 40
0
 40
0
 40
0
 40
0
 40
0.524456
 40
0.524456
 40
0.524456
 40
1
 40
1
 40
1
 40
1
 10
92.8809
 20
130.736
 30
0
 10
92.8831
 20
130.821
 30
0
 10
92.8158
 20
130.897
 30
0
 10
92.734
 20
130.914
 30
0
 10
92.6602
 20
130.931
 30
0
 10
92.5853
 20
130.938
 30
0
 10
92.5094
 20
130.937
 30
0
  0
LINE
  5
AF4
330
A02
100
AcDbEntity
  8
ProjItem
100
AcDbLine
 10
92.0283
 20
131.631
 30
0
 11
92.9784
 21
131.631
 31
0
  0
LINE
  5
AF5
330
A02
100
AcDbEntity
  8
ProjItem
100
AcDbLine
 10
92.0283
 20
131.552
 30
0
 11
92.0283
 21
131.631
 31
0
  0
SPLINE
  5
AF6
330
A02
100
AcDbEntity
  8
ProjItem
100
AcDbSpline
210
0
220
0
230
1
 70
8
 71
2
 72
8
 73
5
 74
0
 40
0
 40
0
 40
0
 40
0.557492
 40
0.557492
 40
1
 40
1
 40
1
 10
92.2658
 20
131.265
 30
0
 10
92.223
 20
131.363
 30
0
 10
92.1548
 20
131.444
 30
0
 10
92.1015
 20
131.51
 30
0
 10
92.0283
 20
131.552
 30
0
  0
LINE
  5
AF7
330
A02
100
AcDbEntity
  8
ProjItem
100
AcDbLine
 10
92.3781
 20
131.265
 30
0
 11
92.2658
 21
131.265
 31
0
  0
SPLINE
  5
AF8
330
A02
100
AcDbEntity
  8
ProjItem
100
AcDbSpline
210
0
220
0
230
1
 70
8
 71
3
 72
8
 73
4
 74
0
 40
0
 40
0
 40
0
 40
0
 40
1
 40
1
 40
1
 40
1
 10
92.238
 20
131.509
 30
0
 10
92.2996
 20
131.438
 30
0
 10
92.3447
 20
131.353
 30
0
 10
92.3781
 20
131.265
 30
0
  0
LINE
  5
AF9
330
A02
100
AcDbEntity
  8
ProjItem
100
AcDbLine
 10
92.9784
 20
131.509
 30
0
 11
92.238
 21
131.509
 31
0
  0
LINE
  5
AFA
330
A02
100
AcDbEntity
  8
ProjItem
100
AcDbLine
 10
92.9784
 20
131.631
 30
0
 11
92.9784
 21
131.509
 31
0
  0
LINE
  5
AFB
330
A02
100
AcDbEntity
  8
ProjItem
100
AcDbLine
 10
92.9784
 20
132.13
 30
0
 11
92.9784
 21
132.009
 31
0
  0
LINE
  5
AFC
330
A02
100
AcDbEntity
  8
ProjItem
100
AcDbLine
 10
92.8566
 20
132.13
 30
0
 11
92.9784
 21
132.13
 31
0
  0
LINE
  5
AFD
330
A02
100
AcDbEntity
  8
ProjItem
100
AcDbLine
 10
92.8566
 20
132.009
 30
0
 11
92.8566
 21
132.13
 31
0
  0
LINE
  5
AFE
330
A02
100
AcDbEntity
  8
ProjItem
100
AcDbLine
 10
92.9784
 20
132.009
 30
0
 11
92.8566
 21
132.009
 31
0
  0
LINE
  5
AFF
330
A02
100
AcDbEntity
  8
ProjItem
100
AcDbLine
 10
92.9784
 20
132.496
 30
0
 11
92.9784
 21
132.374
 31
0
  0
LINE
  5
B00
330
A02
100
AcDbEntity
  8
ProjItem
100
AcDbLine
 10
92.6061
 20
132.496
 30
0
 11
92.9784
 21
132.496
 31
0
  0
SPLINE
  5
B01
330
A02
100
AcDbEntity
  8
ProjItem
100
AcDbSpline
210
0
220
0
230
1
 70
8
 71
3
 72
11
 73
7
 74
0
 40
0
 40
0
 40
0
 40
0
 40
0.478921
 40
0.478921
 40
0.478921
 40
1
 40
1
 40
1
 40
1
 10
92.3815
 20
132.68
 30
0
 10
92.381
 20
132.627
 30
0
 10
92.4013
 20
132.573
 30
0
 10
92.4413
 20
132.538
 30
0
 10
92.4875
 20
132.501
 30
0
 10
92.5494
 20
132.496
 30
0
 10
92.6061
 20
132.496
 30
0
  0
SPLINE
  5
B02
330
A02
100
AcDbEntity
  8
ProjItem
100
AcDbSpline
210
0
220
0
230
1
 70
8
 71
3
 72
11
 73
7
 74
0
 40
0
 40
0
 40
0
 40
0
 40
0.468096
 40
0.468096
 40
0.468096
 40
1
 40
1
 40
1
 40
1
 10
92.5638
 20
132.825
 30
0
 10
92.5226
 20
132.824
 30
0
 10
92.4786
 20
132.824
 30
0
 10
92.4416
 20
132.803
 30
0
 10
92.4002
 20
132.777
 30
0
 10
92.3808
 20
132.727
 30
0
 10
92.3815
 20
132.68
 30
0
  0
LINE
  5
B03
330
A02
100
AcDbEntity
  8
ProjItem
100
AcDbLine
 10
92.9784
 20
132.825
 30
0
 11
92.5638
 21
132.825
 31
0
  0
LINE
  5
B04
330
A02
100
AcDbEntity
  8
ProjItem
100
AcDbLine
 10
92.9784
 20
132.946
 30
0
 11
92.9784
 21
132.825
 31
0
  0
LINE
  5
B05
330
A02
100
AcDbEntity
  8
ProjItem
100
AcDbLine
 10
92.5536
 20
132.946
 30
0
 11
92.9784
 21
132.946
 31
0
  0
SPLINE
  5
B06
330
A02
100
AcDbEntity
  8
ProjItem
100
AcDbSpline
210
0
220
0
230
1
 70
8
 71
2
 72
6
 73
3
 74
0
 40
0
 40
0
 40
0
 40
1
 40
1
 40
1
 10
92.4397
 20
132.94
 30
0
 10
92.4963
 20
132.948
 30
0
 10
92.5536
 20
132.946
 30
0
  0
SPLINE
  5
B07
330
A02
100
AcDbEntity
  8
ProjItem
100
AcDbSpline
210
0
220
0
230
1
 70
8
 71
3
 72
11
 73
7
 74
0
 40
0
 40
0
 40
0
 40
0
 40
0.464105
 40
0.464105
 40
0.464105
 40
1
 40
1
 40
1
 40
1
 10
92.2719
 20
132.713
 30
0
 10
92.2712
 20
132.762
 30
0
 10
92.2828
 20
132.808
 30
0
 10
92.3065
 20
132.851
 30
0
 10
92.3326
 20
132.901
 30
0
 10
92.3861
 20
132.93
 30
0
 10
92.4397
 20
132.94
 30
0
  0
SPLINE
  5
B08
330
A02
100
AcDbEntity
  8
ProjItem
100
AcDbSpline
210
0
220
0
230
1
 70
8
 71
3
 72
8
 73
4
 74
0
 40
0
 40
0
 40
0
 40
0
 40
1
 40
1
 40
1
 40
1
 10
92.3809
 20
132.496
 30
0
 10
92.3086
 20
132.542
 30
0
 10
92.2694
 20
132.628
 30
0
 10
92.2719
 20
132.713
 30
0
  0
LINE
  5
B09
330
A02
100
AcDbEntity
  8
ProjItem
100
AcDbLine
 10
92.2841
 20
132.496
 30
0
 11
92.3809
 21
132.496
 31
0
  0
LINE
  5
B0A
330
A02
100
AcDbEntity
  8
ProjItem
100
AcDbLine
 10
92.2841
 20
132.374
 30
0
 11
92.2841
 21
132.496
 31
0
  0
LINE
  5
B0B
330
A02
100
AcDbEntity
  8
ProjItem
100
AcDbLine
 10
92.9784
 20
132.374
 30
0
 11
92.2841
 21
132.374
 31
0
  0
SPLINE
  5
B0C
330
A02
100
AcDbEntity
  8
ProjItem
100
AcDbSpline
210
0
220
0
230
1
 70
8
 71
2
 72
8
 73
5
 74
0
 40
0
 40
0
 40
0
 40
0.514862
 40
0.514862
 40
1
 40
1
 40
1
 10
92.8809
 20
133.441
 30
0
 10
92.8823
 20
133.504
 30
0
 10
92.8549
 20
133.561
 30
0
 10
92.8254
 20
133.613
 30
0
 10
92.7713
 20
133.639
 30
0
  0
SPLINE
  5
B0D
330
A02
100
AcDbEntity
  8
ProjItem
100
AcDbSpline
210
0
220
0
230
1
 70
8
 71
3
 72
11
 73
7
 74
0
 40
0
 40
0
 40
0
 40
0
 40
0.515833
 40
0.515833
 40
0.515833
 40
1
 40
1
 40
1
 40
1
 10
92.6617
 20
133.214
 30
0
 10
92.7216
 20
133.218
 30
0
 10
92.7838
 20
133.238
 30
0
 10
92.8244
 20
133.284
 30
0
 10
92.863
 20
133.329
 30
0
 10
92.8819
 20
133.382
 30
0
 10
92.8809
 20
133.441
 30
0
  0
LINE
  5
B0E
330
A02
100
AcDbEntity
  8
ProjItem
100
AcDbLine
 10
92.6617
 20
133.762
 30
0
 11
92.6617
 21
133.214
 31
0
  0
SPLINE
  5
B0F
330
A02
100
AcDbEntity
  8
ProjItem
100
AcDbSpline
210
0
220
0
230
1
 70
8
 71
1
 72
4
 73
2
 74
0
 40
0
 40
0
 40
1
 40
1
 10
92.6305
 20
133.763
 30
0
 10
92.6617
 20
133.762
 30
0
  0
SPLINE
  5
B10
330
A02
100
AcDbEntity
  8
ProjItem
100
AcDbSpline
210
0
220
0
230
1
 70
8
 71
3
 72
11
 73
7
 74
0
 40
0
 40
0
 40
0
 40
0
 40
0.478048
 40
0.478048
 40
0.478048
 40
1
 40
1
 40
1
 40
1
 10
92.2719
 20
133.432
 30
0
 10
92.2705
 20
133.52
 30
0
 10
92.3016
 20
133.609
 30
0
 10
92.3659
 20
133.67
 30
0
 10
92.4349
 20
133.739
 30
0
 10
92.5356
 20
133.763
 30
0
 10
92.6305
 20
133.763
 30
0
  0
SPLINE
  5
B11
330
A02
100
AcDbEntity
  8
ProjItem
100
AcDbSpline
210
0
220
0
230
1
 70
8
 71
3
 72
11
 73
7
 74
0
 40
0
 40
0
 40
0
 40
0
 40
0.519906
 40
0.519906
 40
0.519906
 40
1
 40
1
 40
1
 40
1
 10
92.6371
 20
133.093
 30
0
 10
92.5405
 20
133.092
 30
0
 10
92.4379
 20
133.117
 30
0
 10
92.3678
 20
133.187
 30
0
 10
92.3018
 20
133.25
 30
0
 10
92.2705
 20
133.342
 30
0
 10
92.2719
 20
133.432
 30
0
  0
SPLINE
  5
B12
330
A02
100
AcDbEntity
  8
ProjItem
100
AcDbSpline
210
0
220
0
230
1
 70
8
 71
3
 72
11
 73
7
 74
0
 40
0
 40
0
 40
0
 40
0
 40
0.493196
 40
0.493196
 40
0.493196
 40
1
 40
1
 40
1
 40
1
 10
92.9906
 20
133.439
 30
0
 10
92.9915
 20
133.347
 30
0
 10
92.9645
 20
133.252
 30
0
 10
92.8977
 20
133.186
 30
0
 10
92.8304
 20
133.117
 30
0
 10
92.7309
 20
133.092
 30
0
 10
92.6371
 20
133.093
 30
0
  0
SPLINE
  5
B13
330
A02
100
AcDbEntity
  8
ProjItem
100
AcDbSpline
210
0
220
0
230
1
 70
8
 71
3
 72
11
 73
7
 74
0
 40
0
 40
0
 40
0
 40
0
 40
0.529334
 40
0.529334
 40
0.529334
 40
1
 40
1
 40
1
 40
1
 10
92.7835
 20
133.759
 30
0
 10
92.8533
 20
133.739
 30
0
 10
92.9149
 20
133.691
 30
0
 10
92.9491
 20
133.626
 30
0
 10
92.9785
 20
133.567
 30
0
 10
92.9923
 20
133.505
 30
0
 10
92.9906
 20
133.439
 30
0
  0
LINE
  5
B14
330
A02
100
AcDbEntity
  8
ProjItem
100
AcDbLine
 10
92.7713
 20
133.639
 30
0
 11
92.7835
 21
133.759
 31
0
  0
SPLINE
  5
B15
330
A02
100
AcDbEntity
  8
ProjItem
100
AcDbSpline
210
0
220
0
230
1
 70
8
 71
3
 72
11
 73
7
 74
0
 40
0
 40
0
 40
0
 40
0
 40
0.523518
 40
0.523518
 40
0.523518
 40
1
 40
1
 40
1
 40
1
 10
92.3815
 20
133.432
 30
0
 10
92.3803
 20
133.376
 30
0
 10
92.3957
 20
133.326
 30
0
 10
92.4279
 20
133.282
 30
0
 10
92.4568
 20
133.242
 30
0
 10
92.5034
 20
133.218
 30
0
 10
92.552
 20
133.214
 30
0
  0
SPLINE
  5
B16
330
A02
100
AcDbEntity
  8
ProjItem
100
AcDbSpline
210
0
220
0
230
1
 70
8
 71
3
 72
8
 73
4
 74
0
 40
0
 40
0
 40
0
 40
0
 40
1
 40
1
 40
1
 40
1
 10
92.4397
 20
133.592
 30
0
 10
92.3988
 20
133.55
 30
0
 10
92.3808
 20
133.49
 30
0
 10
92.3815
 20
133.432
 30
0
  0
SPLINE
  5
B17
330
A02
100
AcDbEntity
  8
ProjItem
100
AcDbSpline
210
0
220
0
230
1
 70
8
 71
3
 72
8
 73
4
 74
0
 40
0
 40
0
 40
0
 40
0
 40
1
 40
1
 40
1
 40
1
 10
92.552
 20
133.641
 30
0
 10
92.5111
 20
133.636
 30
0
 10
92.4684
 20
133.623
 30
0
 10
92.4397
 20
133.592
 30
0
  0
LINE
  5
B18
330
A02
100
AcDbEntity
  8
ProjItem
100
AcDbLine
 10
92.552
 20
133.214
 30
0
 11
92.552
 21
133.641
 31
0
  0
SPLINE
  5
B19
330
A02
100
AcDbEntity
  8
ProjItem
100
AcDbSpline
210
0
220
0
230
1
 70
8
 71
1
 72
4
 73
2
 74
0
 40
0
 40
0
 40
1
 40
1
 10
92.8809
 20
134.111
 30
0
 10
92.8779
 20
134.165
 30
0
  0
SPLINE
  5
B1A
330
A02
100
AcDbEntity
  8
ProjItem
100
AcDbSpline
210
0
220
0
230
1
 70
8
 71
3
 72
11
 73
7
 74
0
 40
0
 40
0
 40
0
 40
0
 40
0.463202
 40
0.463202
 40
0.463202
 40
1
 40
1
 40
1
 40
1
 10
92.7877
 20
134.043
 30
0
 10
92.8091
 20
134.042
 30
0
 10
92.83
 20
134.044
 30
0
 10
92.8505
 20
134.049
 30
0
 10
92.8746
 20
134.06
 30
0
 10
92.8818
 20
134.088
 30
0
 10
92.8809
 20
134.111
 30
0
  0
LINE
  5
B1B
330
A02
100
AcDbEntity
  8
ProjItem
100
AcDbLine
 10
92.3937
 20
134.043
 30
0
 11
92.7877
 21
134.043
 31
0
  0
LINE
  5
B1C
330
A02
100
AcDbEntity
  8
ProjItem
100
AcDbLine
 10
92.3937
 20
134.165
 30
0
 11
92.3937
 21
134.043
 31
0
  0
LINE
  5
B1D
330
A02
100
AcDbEntity
  8
ProjItem
100
AcDbLine
 10
92.2841
 20
134.165
 30
0
 11
92.3937
 21
134.165
 31
0
  0
LINE
  5
B1E
330
A02
100
AcDbEntity
  8
ProjItem
100
AcDbLine
 10
92.2841
 20
134.043
 30
0
 11
92.2841
 21
134.165
 31
0
  0
LINE
  5
B1F
330
A02
100
AcDbEntity
  8
ProjItem
100
AcDbLine
 10
92.0458
 20
134.043
 30
0
 11
92.2841
 21
134.043
 31
0
  0
LINE
  5
B20
330
A02
100
AcDbEntity
  8
ProjItem
100
AcDbLine
 10
92.115
 20
133.921
 30
0
 11
92.0458
 21
134.043
 31
0
  0
LINE
  5
B21
330
A02
100
AcDbEntity
  8
ProjItem
100
AcDbLine
 10
92.2841
 20
133.921
 30
0
 11
92.115
 21
133.921
 31
0
  0
LINE
  5
B22
330
A02
100
AcDbEntity
  8
ProjItem
100
AcDbLine
 10
92.2841
 20
133.836
 30
0
 11
92.2841
 21
133.921
 31
0
  0
LINE
  5
B23
330
A02
100
AcDbEntity
  8
ProjItem
100
AcDbLine
 10
92.3937
 20
133.836
 30
0
 11
92.2841
 21
133.836
 31
0
  0
LINE
  5
B24
330
A02
100
AcDbEntity
  8
ProjItem
100
AcDbLine
 10
92.3937
 20
133.921
 30
0
 11
92.3937
 21
133.836
 31
0
  0
LINE
  5
B25
330
A02
100
AcDbEntity
  8
ProjItem
100
AcDbLine
 10
92.7833
 20
133.921
 30
0
 11
92.3937
 21
133.921
 31
0
  0
SPLINE
  5
B26
330
A02
100
AcDbEntity
  8
ProjItem
100
AcDbSpline
210
0
220
0
230
1
 70
8
 71
3
 72
11
 73
7
 74
0
 40
0
 40
0
 40
0
 40
0
 40
0.508152
 40
0.508152
 40
0.508152
 40
1
 40
1
 40
1
 40
1
 10
92.9906
 20
134.087
 30
0
 10
92.9912
 20
134.035
 30
0
 10
92.9801
 20
133.975
 30
0
 10
92.934
 20
133.944
 30
0
 10
92.8891
 20
133.917
 30
0
 10
92.8336
 20
133.923
 30
0
 10
92.7833
 20
133.921
 30
0
  0
SPLINE
  5
B27
330
A02
100
AcDbEntity
  8
ProjItem
100
AcDbSpline
210
0
220
0
230
1
 70
8
 71
2
 72
6
 73
3
 74
0
 40
0
 40
0
 40
0
 40
1
 40
1
 40
1
 10
92.9801
 20
134.177
 30
0
 10
92.9899
 20
134.132
 30
0
 10
92.9906
 20
134.087
 30
0
  0
LINE
  5
B28
330
A02
100
AcDbEntity
  8
ProjItem
100
AcDbLine
 10
92.8779
 20
134.165
 30
0
 11
92.9801
 21
134.177
 31
0
  0
LINE
  5
B29
330
A02
100
AcDbEntity
  8
ProjItem
100
AcDbLine
 10
101.276
 20
134.094
 30
0
 11
101.276
 21
134.052
 31
0
  0
LINE
  5
B2A
330
A02
100
AcDbEntity
  8
ProjItem
100
AcDbLine
 10
101.011
 20
134.094
 30
0
 11
101.276
 21
134.094
 31
0
  0
LINE
  5
B2B
330
A02
100
AcDbEntity
  8
ProjItem
100
AcDbLine
 10
101.011
 20
134.198
 30
0
 11
101.011
 21
134.094
 31
0
  0
LINE
  5
B2C
330
A02
100
AcDbEntity
  8
ProjItem
100
AcDbLine
 10
100.976
 20
134.198
 30
0
 11
101.011
 21
134.198
 31
0
  0
LINE
  5
B2D
330
A02
100
AcDbEntity
  8
ProjItem
100
AcDbLine
 10
100.976
 20
133.948
 30
0
 11
100.976
 21
134.198
 31
0
  0
LINE
  5
B2E
330
A02
100
AcDbEntity
  8
ProjItem
100
AcDbLine
 10
101.011
 20
133.948
 30
0
 11
100.976
 21
133.948
 31
0
  0
LINE
  5
B2F
330
A02
100
AcDbEntity
  8
ProjItem
100
AcDbLine
 10
101.011
 20
134.052
 30
0
 11
101.011
 21
133.948
 31
0
  0
LINE
  5
B30
330
A02
100
AcDbEntity
  8
ProjItem
100
AcDbLine
 10
101.276
 20
134.052
 30
0
 11
101.011
 21
134.052
 31
0
  0
LINE
  5
B31
330
A02
100
AcDbEntity
  8
ProjItem
100
AcDbLine
 10
101.276
 20
134.279
 30
0
 11
101.276
 21
134.237
 31
0
  0
LINE
  5
B32
330
A02
100
AcDbEntity
  8
ProjItem
100
AcDbLine
 10
101.022
 20
134.279
 30
0
 11
101.276
 21
134.279
 31
0
  0
LINE
  5
B33
330
A02
100
AcDbEntity
  8
ProjItem
100
AcDbLine
 10
101.276
 20
134.359
 30
0
 11
101.022
 21
134.279
 31
0
  0
LINE
  5
B34
330
A02
100
AcDbEntity
  8
ProjItem
100
AcDbLine
 10
101.276
 20
134.41
 30
0
 11
101.276
 21
134.359
 31
0
  0
LINE
  5
B35
330
A02
100
AcDbEntity
  8
ProjItem
100
AcDbLine
 10
101.022
 20
134.49
 30
0
 11
101.276
 21
134.41
 31
0
  0
LINE
  5
B36
330
A02
100
AcDbEntity
  8
ProjItem
100
AcDbLine
 10
101.276
 20
134.49
 30
0
 11
101.022
 21
134.49
 31
0
  0
LINE
  5
B37
330
A02
100
AcDbEntity
  8
ProjItem
100
AcDbLine
 10
101.276
 20
134.533
 30
0
 11
101.276
 21
134.49
 31
0
  0
LINE
  5
B38
330
A02
100
AcDbEntity
  8
ProjItem
100
AcDbLine
 10
100.976
 20
134.533
 30
0
 11
101.276
 21
134.533
 31
0
  0
LINE
  5
B39
330
A02
100
AcDbEntity
  8
ProjItem
100
AcDbLine
 10
100.976
 20
134.466
 30
0
 11
100.976
 21
134.533
 31
0
  0
LINE
  5
B3A
330
A02
100
AcDbEntity
  8
ProjItem
100
AcDbLine
 10
101.183
 20
134.399
 30
0
 11
100.976
 21
134.466
 31
0
  0
SPLINE
  5
B3B
330
A02
100
AcDbEntity
  8
ProjItem
100
AcDbSpline
210
0
220
0
230
1
 70
8
 71
1
 72
4
 73
2
 74
0
 40
0
 40
0
 40
1
 40
1
 10
101.231
 20
134.385
 30
0
 10
101.183
 20
134.399
 30
0
  0
SPLINE
  5
B3C
330
A02
100
AcDbEntity
  8
ProjItem
100
AcDbSpline
210
0
220
0
230
1
 70
8
 71
1
 72
4
 73
2
 74
0
 40
0
 40
0
 40
1
 40
1
 10
101.187
 20
134.371
 30
0
 10
101.231
 20
134.385
 30
0
  0
LINE
  5
B3D
330
A02
100
AcDbEntity
  8
ProjItem
100
AcDbLine
 10
100.976
 20
134.304
 30
0
 11
101.187
 21
134.371
 31
0
  0
LINE
  5
B3E
330
A02
100
AcDbEntity
  8
ProjItem
100
AcDbLine
 10
100.976
 20
134.237
 30
0
 11
100.976
 21
134.304
 31
0
  0
LINE
  5
B3F
330
A02
100
AcDbEntity
  8
ProjItem
100
AcDbLine
 10
101.276
 20
134.237
 30
0
 11
100.976
 21
134.237
 31
0
  0
LINE
  5
B40
330
A02
100
AcDbEntity
  8
ProjItem
100
AcDbLine
 10
104.555
 20
129.346
 30
0
 11
104.555
 21
129.146
 31
0
  0
LINE
  5
B41
330
A02
100
AcDbEntity
  8
ProjItem
100
AcDbLine
 10
104.555
 20
129.146
 30
0
 11
105.486
 21
129.146
 31
0
  0
LINE
  5
B42
330
A02
100
AcDbEntity
  8
ProjItem
100
AcDbLine
 10
105.486
 20
129.146
 30
0
 11
105.486
 21
129.346
 31
0
  0
LINE
  5
B43
330
A02
100
AcDbEntity
  8
ProjItem
100
AcDbLine
 10
105.486
 20
129.346
 30
0
 11
104.555
 21
129.346
 31
0
  0
LINE
  5
B44
330
A02
100
AcDbEntity
  8
ProjItem
100
AcDbLine
 10
96.6644
 20
138.153
 30
0
 11
96.6642
 21
137.953
 31
0
  0
LINE
  5
B45
330
A02
100
AcDbEntity
  8
ProjItem
100
AcDbLine
 10
96.6642
 20
137.953
 30
0
 11
97.5956
 21
137.953
 31
0
  0
LINE
  5
B46
330
A02
100
AcDbEntity
  8
ProjItem
100
AcDbLine
 10
97.5956
 20
137.953
 30
0
 11
97.5958
 21
138.153
 31
0
  0
LINE
  5
B47
330
A02
100
AcDbEntity
  8
ProjItem
100
AcDbLine
 10
97.5958
 20
138.153
 30
0
 11
96.6644
 21
138.153
 31
0
  0
LINE
  5
B48
330
A02
100
AcDbEntity
  8
ProjItem
100
AcDbLine
 10
88.7717
 20
129.095
 30
0
 11
88.7715
 21
128.895
 31
0
  0
LINE
  5
B49
330
A02
100
AcDbEntity
  8
ProjItem
100
AcDbLine
 10
88.7715
 20
128.895
 30
0
 11
89.1372
 21
128.895
 31
0
  0
LINE
  5
B4A
330
A02
100
AcDbEntity
  8
ProjItem
100
AcDbLine
 10
89.1372
 20
128.895
 30
0
 11
89.137
 21
128.529
 31
0
  0
LINE
  5
B4B
330
A02
100
AcDbEntity
  8
ProjItem
100
AcDbLine
 10
89.137
 20
128.529
 30
0
 11
89.337
 21
128.529
 31
0
  0
LINE
  5
B4C
330
A02
100
AcDbEntity
  8
ProjItem
100
AcDbLine
 10
89.337
 20
128.529
 30
0
 11
89.3372
 21
128.894
 31
0
  0
LINE
  5
B4D
330
A02
100
AcDbEntity
  8
ProjItem
100
AcDbLine
 10
89.3372
 20
128.894
 30
0
 11
89.7029
 21
128.894
 31
0
  0
LINE
  5
B4E
330
A02
100
AcDbEntity
  8
ProjItem
100
AcDbLine
 10
89.7029
 20
128.894
 30
0
 11
89.7031
 21
129.094
 31
0
  0
LINE
  5
B4F
330
A02
100
AcDbEntity
  8
ProjItem
100
AcDbLine
 10
89.7031
 20
129.094
 30
0
 11
89.3374
 21
129.094
 31
0
  0
LINE
  5
B50
330
A02
100
AcDbEntity
  8
ProjItem
100
AcDbLine
 10
89.3374
 20
129.094
 30
0
 11
89.3376
 21
129.46
 31
0
  0
LINE
  5
B51
330
A02
100
AcDbEntity
  8
ProjItem
100
AcDbLine
 10
89.3376
 20
129.46
 30
0
 11
89.1376
 21
129.46
 31
0
  0
LINE
  5
B52
330
A02
100
AcDbEntity
  8
ProjItem
100
AcDbLine
 10
89.1376
 20
129.46
 30
0
 11
89.1374
 21
129.095
 31
0
  0
LINE
  5
B53
330
A02
100
AcDbEntity
  8
ProjItem
100
AcDbLine
 10
89.1374
 20
129.095
 30
0
 11
88.7717
 21
129.095
 31
0
  0
LINE
  5
B54
330
A02
100
AcDbEntity
  8
ProjItem
100
AcDbLine
 10
96.6134
 20
124.291
 30
0
 11
96.6132
 21
124.091
 31
0
  0
LINE
  5
B55
330
A02
100
AcDbEntity
  8
ProjItem
100
AcDbLine
 10
96.6132
 20
124.091
 30
0
 11
96.9789
 21
124.091
 31
0
  0
LINE
  5
B56
330
A02
100
AcDbEntity
  8
ProjItem
100
AcDbLine
 10
96.9789
 20
124.091
 30
0
 11
96.9787
 21
123.725
 31
0
  0
LINE
  5
B57
330
A02
100
AcDbEntity
  8
ProjItem
100
AcDbLine
 10
96.9787
 20
123.725
 30
0
 11
97.1787
 21
123.725
 31
0
  0
LINE
  5
B58
330
A02
100
AcDbEntity
  8
ProjItem
100
AcDbLine
 10
97.1787
 20
123.725
 30
0
 11
97.1789
 21
124.091
 31
0
  0
LINE
  5
B59
330
A02
100
AcDbEntity
  8
ProjItem
100
AcDbLine
 10
97.1789
 20
124.091
 30
0
 11
97.5446
 21
124.091
 31
0
  0
LINE
  5
B5A
330
A02
100
AcDbEntity
  8
ProjItem
100
AcDbLine
 10
97.5446
 20
124.091
 30
0
 11
97.5448
 21
124.291
 31
0
  0
LINE
  5
B5B
330
A02
100
AcDbEntity
  8
ProjItem
100
AcDbLine
 10
97.5448
 20
124.291
 30
0
 11
97.1791
 21
124.291
 31
0
  0
LINE
  5
B5C
330
A02
100
AcDbEntity
  8
ProjItem
100
AcDbLine
 10
97.1791
 20
124.291
 30
0
 11
97.1793
 21
124.657
 31
0
  0
LINE
  5
B5D
330
A02
100
AcDbEntity
  8
ProjItem
100
AcDbLine
 10
97.1793
 20
124.657
 30
0
 11
96.9793
 21
124.657
 31
0
  0
LINE
  5
B5E
330
A02
100
AcDbEntity
  8
ProjItem
100
AcDbLine
 10
96.9793
 20
124.657
 30
0
 11
96.9791
 21
124.291
 31
0
  0
LINE
  5
B5F
330
A02
100
AcDbEntity
  8
ProjItem
100
AcDbLine
 10
96.9791
 20
124.291
 30
0
 11
96.6134
 21
124.291
 31
0
  0
ENDSEC
  0
SECTION
  2
OBJECTS
  0
DICTIONARY
  5
F000
330
0
100
AcDbDictionary
  3
ACAD_GROUP
350
F001
  0
DICTIONARY
  5
F001
330
F000
100
AcDbDictionary
  0
ENDSEC
  0
EOF